<mxfile host="app.diagrams.net" agent="Mozilla/5.0 (X11; Linux x86_64) AppleWebKit/537.36 (KHTML, like Gecko) Chrome/133.0.0.0 Safari/537.36" version="26.1.0">
  <diagram name="Page-1" id="ryy2WtUM4h5klHbA6YEI">
    <mxGraphModel dx="2261" dy="741" grid="1" gridSize="10" guides="1" tooltips="1" connect="1" arrows="1" fold="1" page="1" pageScale="1" pageWidth="827" pageHeight="1169" math="0" shadow="0">
      <root>
        <mxCell id="0" />
        <mxCell id="1" parent="0" />
        <mxCell id="P7QgvSndgrQcU59DoDmU-7" style="edgeStyle=orthogonalEdgeStyle;rounded=0;orthogonalLoop=1;jettySize=auto;html=1;exitX=0.009;exitY=0.634;exitDx=0;exitDy=0;curved=1;exitPerimeter=0;" edge="1" parent="1" source="P7QgvSndgrQcU59DoDmU-1" target="P7QgvSndgrQcU59DoDmU-24">
          <mxGeometry relative="1" as="geometry" />
        </mxCell>
        <mxCell id="P7QgvSndgrQcU59DoDmU-8" value="Does this user exist ?" style="edgeLabel;html=1;align=center;verticalAlign=middle;resizable=0;points=[];" vertex="1" connectable="0" parent="P7QgvSndgrQcU59DoDmU-7">
          <mxGeometry x="0.2858" y="-10" relative="1" as="geometry">
            <mxPoint x="5" y="-57" as="offset" />
          </mxGeometry>
        </mxCell>
        <mxCell id="P7QgvSndgrQcU59DoDmU-14" value="No / Yes (token) + role" style="edgeLabel;html=1;align=center;verticalAlign=middle;resizable=0;points=[];" vertex="1" connectable="0" parent="P7QgvSndgrQcU59DoDmU-7">
          <mxGeometry x="-0.0413" y="-2" relative="1" as="geometry">
            <mxPoint as="offset" />
          </mxGeometry>
        </mxCell>
        <mxCell id="P7QgvSndgrQcU59DoDmU-15" value="Ui Give acces or not to view&lt;div&gt;certain pages depending on role&lt;/div&gt;" style="edgeLabel;html=1;align=center;verticalAlign=middle;resizable=0;points=[];" vertex="1" connectable="0" parent="P7QgvSndgrQcU59DoDmU-7">
          <mxGeometry x="0.341" relative="1" as="geometry">
            <mxPoint as="offset" />
          </mxGeometry>
        </mxCell>
        <mxCell id="P7QgvSndgrQcU59DoDmU-1" value="Identity Provider" style="shape=image;verticalLabelPosition=bottom;labelBackgroundColor=default;verticalAlign=top;aspect=fixed;imageAspect=0;image=data:image/png,iVBORw0KGgoAAAANSUhEUgAAAVsAAACRCAMAAABaFeu5AAABKVBMVEX///9NTU3Hx8fS0tJsbGyRkZHMzMy2trbBwcH7+/t2dnapqanY2Nh/f3+9vb17e3vo6Ojw8PCKiopISEji4uKYmJj29vZDQ0Ojo6Ovr6+EhISXl5dwcHBqamrs7Ozc3NxgYGAAiqgAueFVVVUAia0At+RMTklRTEszx+oAuNwAiazV1tEAhKAawOTQ0dUCtuc3W103WWFDUVQ/YXRBY2o+Y2kYfZAueI1RTEZHTksuans5q84+vdo9vdI7d4NOS1I8UFwfmLBAqcJCVlg+hplhdXoTrctWe4LZ4ueDwM6+2+PM4N13zNork6gAlbjd5N2U1uWmz9tSo7p+yeCF0+Gz5PDK3epirLhlv9skttHG1Nmu1NkDmMSSxNEvxO60zM93rsaBwMiZvsH+6Z4cAAAMGElEQVR4nO2bC3vaVhJAQTJ6ICEQCFniJZANNmBD4jZJXdN1k21d17Edu2k3Lt6mu/3/P2Jn5uqFceI27bda7zcnDyOBQToazZ07EoUCwzAMwzAMwzAMwzAMwzAMwzAMwzAMwzAMwzAMwzAMwzAMwzAMwzAMwzAMwzAMwzD/w+i1D2PnvXGPnNLmh+m4eW/do0YufoSGkffmPWqqjY/J3arlvX2PGLXxUbeb9bw38PFi9z+qFrKCnPcmPlq8zY+rLTYqet7b+EgJth5QW2xsWnlv5COlhWF7XNw5fvL0yZMnB8VDXPzi8LPPPv/82cGoOEK5/V7eW/kokUSyHY2ePN/b2xu8OPiiODosHn55tPhqsfjbaOeYItfLezMfI25ZZNudgy+3t7cnw6NnGKrHX78cv9/d3X319+Ixym1wHfYJ+JsNZNR4urc9GFyOh3sHjcZx48V4PAS3i2/gGWSzxcPZH6VX7ZSJb18MJoPLeTg8+a7T6Xz7cj4f7qPc7zobHaSr9CL0gu4iyXu4tmvbuEyr4XGCWxBL6XGx8R3iDkUvkCzVkp142e31arXa+kF0A8U3DF8J1mbfrgNkTyk9wDXJ63AhCPI55/SaIzj9fm8wmJzMh/PxWRAErxfDYRhiVjhfmqY5NeUEJSjYMiwrsZGaoiiSJPUKOv5ANM3SQJqqBgVTtSwLfkb0VNX3fQv3XQ9UwzMAzzNUh54NPM9rendNOGqzXi+VSvV6vWndedKrIE66wux0yp1OXI9rHYyMbj5Vjh2pdc4uQO1lOBwOz+FAO2+uxhDC6HZxPQW3WbkmuJXBZ+TWkcgt7F/q1rI0TVXRrauhWy0OJMlHuejCtowEUEq60a13x60ulTLU20r2SafVArVVP11j4mkYu5VIdN/IJZ3pUdBC2E62IWzDMBz/BG5PMXDDYQhu39+cmTNTBsFZt0riFqIWliSMTJ3iV9NQJwYuui0EFLjRzjoo3NBgXx08yVO5hudDlRc019y6ammVlppJDD6FbbWVtkFlSmDiACgbG52NjW4znz5eLw7b673B9gDCdj68Oj1Ft85PJxDDKHdxhVbBrZm6VRK3PTQLeQJDQ4/UklsL3WKASijXovrYtShsQZ5j3FEL2cG+x61+V22p3lLTza9XhFwtWSV3IQlskFsZxILadj5q3Vjt6Q97g8lkOA/ni9cgFjk9D+fDMajdXZyB2ensXrfikWLSWaeTWAmjVxGJAjXVSLSErwjQrAE73vM9YdWSZMXCnGB4qn6PW6lNQptWYNuOJZJuS4qf1SoRpSRwwS2Abp0qaa7n1NqPBzLnFxjIti8xUH8KYs4W4XBMgft2OZ3dH7eYHMCiKUID3Uqac+dDdJmyAqy2cRzz8ZzWhFlNzPZsBezi6jW3tSapNSI/Na+OlKJJol6P3ZbN+DdMdNtVUC086HSrf2WNkNY/D2ZwCNtaNJBNBpPtIQ5kp1HYTs3gxxORFHYXt+B2eo9bl/KuIkefJOL2rltQSvlXLyio1gcNNaE2HZYcz0d9a24tUuslZ7XbRLetaNxXKgnJtFGO3PYqFLXlvKY8SUb4fm8ymRxB/XUCA9kbcgtl1z8WY6jDUO752Uw2k8CN3Ep2rDbe9Q+4hTpMhYJM7vmrYZsd8XsUiui22Ux12CIjZHoZNRG49Il6E622SpRx4ypPphwruy3KDR2zkA92ELm9HWD9NZ4Phz9C0L4JTGI2u4qHs/CtmQ5mShy3NRMTgpTUucKtFax9kKuRXMoIBqh3aRTz1xOh2URStzKp1bIvUVsYuHT8Aqq/DLMK/5fjwJWxNNiw6qC2K/JuHuix2tN3E3B7BEPX4oxClpBn8vJmDHJhdjZc3MpynBIStyiW5gzJO1JpqyQZO5lGUenlG+gWxyGbagNtfZMCcpsGvopThtLKiWBSUqDf9avo1nFL1Wq1XImOiNyl6kAgFXIiHsiC6z1wiwPZ0dUpmp3heQ8mp/L1z1Dj7u/uh+PzpViHk4Y4J4hpQuas0zMFmBWNX+IJBWOW3OKRoHTr3XMtg9y2U5c+ul0tT0VSwMmCTWHrYa2FcqMcDG47VNZC3Jb+WmF/ACEWXH4D04bLn8Nwf3FmTuXpVITnbPp6+voGjI/3Ieue3MpKFLboVsqQntq6tKLWSieoNUq1hi9ybEDp9ne4Ncjtypjco7jFK88qhS28oVsvg9uWOAToNo7cTm4pwYnO/+Dd3mT7iOoBcDtDuRSh6PaHwfb2JSSG8KtfY7OKJBdsqLUSkqGM3Fr3utUlcmv49Frnz7qtg1u7jnmWRjULe02RyKzbbjWvjr5tRpxdXPxzjt3a/R+XFLHJ5BbLXkjEUC5cKSRWyIS4zcpNBq/IrRaTaazYwq14aY9ywj3JEN2223fz7UoZ5cRFmCaGMIgPR6JGXp2OW+S2K+SW8mqMRoOWGXw/mM/H1FC8laexV0gKZzBb24NEHA5vULoiCaVyoScmYFKUc+Od17FJY5luQmbPFMoJIsTFWKau73fQXnWr1HEitnJmS1QnBAW9XYFEUC5XywmU+cltZ6PbIrd9tZAPbhy4yyPs0WBWeLtM8i1McrHtOMA67Ofr2Szuw2gUt/QoKJgifKOsINyu12CInHFbUKn3lX2heOKu2xo1ELzMQbBL6BbmsaZQm6FDZRj1Ezrdtut1N7rdfne92v7v4ERxa15Ftdbu4mqWRO5MtB1ptraM0sGKW4gTN8oSYu91baVXu8KKW5l6iX6aDWuiajDvuNUNkptpv/qVVqtVgXTb7pTXwF8U/YS2W3BbfVDbr+TUTogCd2q+voF5A3Vrz89AKiVcZfkOa7PhfBge3U6TpjdAbuEh9WrEaqFDj3q297Hi1jVIrhHLdbxSE8/ou/m2YIrWlxRPqi1U26oEBUeEagIudbEyS3s1Qbff73e38rqIKoYzOPuvwqhbu39FavHfb3j97CiEdPs27nmvuy04lBVE00XHtqIquxmSj5KpCouXTU+gBbWeI6ttdKrQvKzdbirxXNxxdZ9aXy3DdHXdNb1WvYVTMZw3oE3Pj6nA0kanl3Vb0Ppot59TIaZHw9n09dswpMB9f3M2m03R7fIHLHvnYThf/Crd41YSbnVZw9UKXaUht1m0JFWuutU14Racwr82TccgrUK+hT/tpFULlXQTzLbwb7tdx5CFLAt1F8wbIGgzl0f9ThkGMGvFbcFDtf2NnNo1SR12u5iLaziL8+WMyrBfMCMcDefh+Bdpza2WuKWGOJRbmC/X3VqpWwNrsLQUtppCbUwbhzZ0m6ot1eFNa+0WuW3RDyy7sHWjleFBdkrbK6NbmD+g225XPONWMHK38irEnLgOu4IJWPge5V5jup0uLyZQf0HUhjfLVbXgtpdxiwVZNL/VrTW5GbdYGqQ5QpcybkGpgdEVtFfUotuC7bUSIGqrno0zsSq4XRmmfJzp9k1wC9VBP7JOKbe/lVMh5kKV8CYIpsHZYk69g/e750uoFMx/iWwbDsfXEhWySsatbWmpW7yagCFqr7v1U7cKXcLNtgYcNRO0oowzM14xF1DxoEvtVkWoLVdKdLYrZewgrNxy7XSw5ioVZMoDcURLW0BxK6fbMB01mp/++2Q+ntNlht9Qy8VgAvUX1L3v4uHCiqcKDl1ukNO2rRmt1mVpFS0dR7CH62srbRe9JvmUca3ougVMhv3kwi8SlRyuqXqYcptq1FnTSqv9MnwzgybDroOpo540kAxsOpRzuvHdjW4Z3zl4jn0DSAqvvi4eFw+ew7wB08Tl1zt4712juBXoEX/px68UEx9G/12v+8Cm5XZHkBndB7rz7NUcr48tXhwXd3aKT/cmOFs7+vJQ3Gy3mdfs8VHTju5sbrzAIvf9q6ejUXH0xcHf6NLkxcFI3MfIX9b5FGp0a/PosPjk+QXweXG0g3eMPn3+8uXLi2ejnRHdgJtbC/9x48e35B8eANHj0fHB4SEtoVu+Kf8TccsPfJWk2Ni6v0nAPIj00PcdNvmu8U9FrzwQuFv8bYdP5oFv6nD99WfwPhq4ZR7I/gS9rvjWw31sFvO6FP1/gobdjw/AAxnDMAzDMAzDMAzDMAzDMAzDMAzDMAzDMAzDMAzDMAzDMAzDMAzDMAzDMAzDMAzDMAzDPMB/AAFAgC4MsoVXAAAAAElFTkSuQmCC;" vertex="1" parent="1">
          <mxGeometry x="-40" width="457" height="190.97" as="geometry" />
        </mxCell>
        <mxCell id="P7QgvSndgrQcU59DoDmU-5" style="rounded=0;orthogonalLoop=1;jettySize=auto;html=1;edgeStyle=orthogonalEdgeStyle;curved=1;" edge="1" parent="1" source="P7QgvSndgrQcU59DoDmU-24">
          <mxGeometry relative="1" as="geometry">
            <mxPoint x="90" y="210" as="targetPoint" />
          </mxGeometry>
        </mxCell>
        <mxCell id="P7QgvSndgrQcU59DoDmU-13" value="Does this user exist ?" style="edgeLabel;html=1;align=center;verticalAlign=middle;resizable=0;points=[];" vertex="1" connectable="0" parent="P7QgvSndgrQcU59DoDmU-5">
          <mxGeometry x="0.3609" y="19" relative="1" as="geometry">
            <mxPoint as="offset" />
          </mxGeometry>
        </mxCell>
        <mxCell id="P7QgvSndgrQcU59DoDmU-2" value="Application UI" style="shape=image;verticalLabelPosition=bottom;labelBackgroundColor=default;verticalAlign=top;aspect=fixed;imageAspect=0;editableCssRules=.*;image=data:image/svg+xml,PHN2ZyB4bWxuczp4bGluaz0iaHR0cDovL3d3dy53My5vcmcvMTk5OS94bGluayIgeG1sbnM9Imh0dHA6Ly93d3cudzMub3JnLzIwMDAvc3ZnIiBwcmVzZXJ2ZUFzcGVjdFJhdGlvPSJ4TWlkWU1pZCIgdmVyc2lvbj0iMS4xIiB2aWV3Qm94PSIwIC01Ljk2MDQ2NDQ3NzUzOTA2M2UtOCAyNTYgMjU1Ljk5OTk4NDc0MTIxMDk0IiBoZWlnaHQ9Ijc5OS45OTk5NTIzMTYyODQyIiB3aWR0aD0iODAwIj4mI3hhOyAgICA8Zz4mI3hhOyAgICAgICAgPHBhdGggZmlsbD0iIzAwMDAwMCIgZD0iTTExOS42MTY4MTMsMC4wNjg4OTA1MTQ5IEMxMTkuMDY2Mjc2LDAuMTE4OTMyMDM3IDExNy4zMTQ1NjUsMC4yOTQwNzczNjQgMTE1LjczODAyNSwwLjQxOTE4MTE2OSBDNzkuMzc3NTE3MSwzLjY5NjkwMDg3IDQ1LjMxOTI1NzEsMjMuMzEzMTc3NSAyMy43NDgxOTE2LDUzLjQ2MzE5NDYgQzExLjczNjQ2MTQsNzAuMjI3MTA0NSA0LjA1Mzk1ODk0LDg5LjI0Mjg4MjkgMS4xNTExMjQxNCwxMDkuMzg0NTk1IEMwLjEyNTEyMjE5LDExNi40MTU0MjkgMCwxMTguNDkyMTUzIDAsMTI4LjAyNTA2MiBDMCwxMzcuNTU3OTcyIDAuMTI1MTIyMTksMTM5LjYzNDY5NiAxLjE1MTEyNDE0LDE0Ni42NjU1MjkgQzguMTA3OTE3ODksMTk0LjczMDQxMSA0Mi4zMTYzMjQ1LDIzNS4xMTM5MiA4OC43MTE2MzI1LDI1MC4wNzYzMzUgQzk3LjAxOTc0NTgsMjUyLjc1MzU1NiAxMDUuNzc4Mjk5LDI1NC41ODAwNzIgMTE1LjczODAyNSwyNTUuNjgwOTg1IEMxMTkuNjE2ODEzLDI1Ni4xMDYzMzggMTM2LjM4MzE4NywyNTYuMTA2MzM4IDE0MC4yNjE5NzUsMjU1LjY4MDk4NSBDMTU3LjQ1Mzc2MywyNTMuNzc5NDA3IDE3Mi4wMTc5ODYsMjQ5LjUyNTg3OCAxODYuMzgyMDE0LDI0Mi4xOTQ3OTUgQzE4OC41ODQxNjQsMjQxLjA2ODg2MSAxODkuMDA5NTgsMjQwLjc2ODYxMiAxODguNzA5Mjg2LDI0MC41MTg0MDQgQzE4OC41MDkwOTEsMjQwLjM2ODI4IDE3OS4xMjQ5MjcsMjI3Ljc4MjgzNyAxNjcuODYzOTMsMjEyLjU3MDIxNCBMMTQ3LjM5MzkzOSwxODQuOTIyMjczIEwxMjEuNzQzODkxLDE0Ni45NjU3NzkgQzEwNy42MzAxMDgsMTI2LjA5ODQ2NCA5Ni4wMTg3NjgzLDEwOS4wMzQzMDUgOTUuOTE4NjcwNiwxMDkuMDM0MzA1IEM5NS44MTg1NzI4LDEwOS4wMDkyODQgOTUuNzE4NDc1MSwxMjUuODczMjc3IDk1LjY2ODQyNjIsMTQ2LjQ2NTM2MyBDOTUuNTkzMzUyOSwxODIuNTIwMjggOTUuNTY4MzI4NCwxODMuOTcxNDg0IDk1LjExNzg4ODYsMTg0LjgyMjE5IEM5NC40NjcyNTMyLDE4Ni4wNDgyMDcgOTMuOTY2NzY0NCwxODYuNTQ4NjIzIDkyLjkxNTczOCwxODcuMDk5MDc5IEM5Mi4xMTQ5NTYsMTg3LjQ5OTQxMSA5MS40MTQyNzE3LDE4Ny41NzQ0NzQgODcuNjM1NTgxNiwxODcuNTc0NDc0IEw4My4zMDYzNTM5LDE4Ny41NzQ0NzQgTDgyLjE1NTIyOTcsMTg2Ljg0ODg3MiBDODEuNDA0NDk2NiwxODYuMzczNDc3IDgwLjg1Mzk1ODksMTg1Ljc0Nzk1OCA4MC40Nzg1OTI0LDE4NS4wMjIzNTYgTDc5Ljk1MzA3OTIsMTgzLjg5NjQyMiBMODAuMDAzMTI4MSwxMzMuNzI5Nzk2IEw4MC4wNzgyMDE0LDgzLjUzODE0OTMgTDgwLjg1Mzk1ODksODIuNTYyMzM5NyBDODEuMjU0MzUsODIuMDM2OTAzNyA4Mi4xMDUxODA4LDgxLjM2MTM0MzEgODIuNzA1NzY3NCw4MS4wMzYwNzMyIEM4My43MzE3NjkzLDgwLjUzNTY1OCA4NC4xMzIxNjAzLDgwLjQ4NTYxNjUgODguNDYxMzg4MSw4MC40ODU2MTY1IEM5My41NjYzNzM0LDgwLjQ4NTYxNjUgOTQuNDE3MjA0Myw4MC42ODU3ODI2IDk1Ljc0MzQ5OTUsODIuMTM2OTg2NyBDOTYuMTE4ODY2MSw4Mi41MzczMTg5IDExMC4wMDc0MjksMTAzLjQ1NDY3NSAxMjYuNjIzNjU2LDEyOC42NTA1ODEgQzE0My4yMzk4ODMsMTUzLjg0NjQ4OCAxNjUuOTYyMDcyLDE4OC4yNTAwMzQgMTc3LjEyMjk3MiwyMDUuMTM5MDQ4IEwxOTcuMzkyNzY2LDIzNS44Mzk1MjIgTDE5OC40MTg3NjgsMjM1LjE2Mzk2MSBDMjA3LjUwMjYzOSwyMjkuMjU5MDYyIDIxNy4xMTIwMjMsMjIwLjg1MjA4NiAyMjQuNzE5NDUzLDIxMi4wOTQ4MiBDMjQwLjkxMDI2NCwxOTMuNTA0Mzk0IDI1MS4zNDU0NTUsMTcwLjgzNTU4NSAyNTQuODQ4ODc2LDE0Ni42NjU1MjkgQzI1NS44NzQ4NzgsMTM5LjYzNDY5NiAyNTYsMTM3LjU1Nzk3MiAyNTYsMTI4LjAyNTA2MiBDMjU2LDExOC40OTIxNTMgMjU1Ljg3NDg3OCwxMTYuNDE1NDI5IDI1NC44NDg4NzYsMTA5LjM4NDU5NSBDMjQ3Ljg5MjA4Miw2MS4zMTk3MTM1IDIxMy42ODM2NzUsMjAuOTM2MjA1MiAxNjcuMjg4MzY4LDUuOTczNzkwMTIgQzE1OS4xMDUzNzYsMy4zMjE1ODk0NSAxNTAuMzk2ODcyLDEuNDk1MDczODkgMTQwLjYzNzM0MSwwLjM5NDE2MDQwOCBDMTM4LjIzNDk5NSwwLjE0Mzk1Mjc5OCAxMjEuNjkzODQyLC0wLjEzMTI3NTU3MyAxMTkuNjE2ODEzLDAuMDY4ODkwNTE0OSBMMTE5LjYxNjgxMywwLjA2ODg5MDUxNDkgWiBNMTcyLjAxNzk4Niw3Ny40ODMxMjUyIEMxNzMuMjE5MTU5LDc4LjA4MzYyMzQgMTc0LjE5NTExMiw3OS4yMzQ1Nzg0IDE3NC41NDU0NTUsODAuNDM1NTc1IEMxNzQuNzQ1NjUsODEuMDg2MTE0OCAxNzQuNzk1Njk5LDk0Ljk5NzY1NzkgMTc0Ljc0NTY1LDEyNi4zNDg2NzEgTDE3NC42NzA1NzcsMTcxLjMzNiBMMTY2LjczNzgzLDE1OS4xNzU5MSBMMTU4Ljc4MDA1OSwxNDcuMDE1ODIgTDE1OC43ODAwNTksMTE0LjMxMzY4NSBDMTU4Ljc4MDA1OSw5My4xNzExNDIzIDE1OC44ODAxNTYsODEuMjg2MjgwOCAxNTkuMDMwMzAzLDgwLjcxMDgwMzMgQzE1OS40MzA2OTQsNzkuMzA5NjQwNyAxNjAuMzA2NTQ5LDc4LjIwODcyNzIgMTYxLjUwNzcyMiw3Ny41NTgxODc1IEMxNjIuNTMzNzI0LDc3LjAzMjc1MTUgMTYyLjkwOTA5MSw3Ni45ODI3MSAxNjYuODM3OTI4LDc2Ljk4MjcxIEMxNzAuNTQxNTQ0LDc2Ljk4MjcxIDE3MS4xOTIxOCw3Ny4wMzI3NTE1IDE3Mi4wMTc5ODYsNzcuNDgzMTI1MiBaIj4mI3hhOyYjeGE7PC9wYXRoPiYjeGE7ICAgIDwvZz4mI3hhOzwvc3ZnPg==;" vertex="1" parent="1">
          <mxGeometry x="-690" y="420" width="150" height="150" as="geometry" />
        </mxCell>
        <mxCell id="P7QgvSndgrQcU59DoDmU-39" style="edgeStyle=orthogonalEdgeStyle;rounded=0;orthogonalLoop=1;jettySize=auto;html=1;exitX=1;exitY=0.25;exitDx=0;exitDy=0;entryX=0;entryY=0.5;entryDx=0;entryDy=0;" edge="1" parent="1" source="P7QgvSndgrQcU59DoDmU-3" target="P7QgvSndgrQcU59DoDmU-33">
          <mxGeometry relative="1" as="geometry" />
        </mxCell>
        <mxCell id="P7QgvSndgrQcU59DoDmU-40" style="edgeStyle=orthogonalEdgeStyle;rounded=0;orthogonalLoop=1;jettySize=auto;html=1;exitX=1;exitY=0.75;exitDx=0;exitDy=0;entryX=0;entryY=0.75;entryDx=0;entryDy=0;" edge="1" parent="1" source="P7QgvSndgrQcU59DoDmU-3" target="P7QgvSndgrQcU59DoDmU-37">
          <mxGeometry relative="1" as="geometry" />
        </mxCell>
        <mxCell id="P7QgvSndgrQcU59DoDmU-3" value="Pulsar Broker" style="shape=image;verticalLabelPosition=bottom;labelBackgroundColor=default;verticalAlign=top;aspect=fixed;imageAspect=0;editableCssRules=.*;image=data:image/svg+xml,PHN2ZyB4bWxucz0iaHR0cDovL3d3dy53My5vcmcvMjAwMC9zdmciIHZpZXdCb3g9IjYyIDMwIDI1NCAyNTQiIGhlaWdodD0iMjU0IiB3aWR0aD0iMjU0Ij4mI3hhOyAgICA8ZGVmcz4mI3hhOyAgICAgICAgPGZpbHRlciBmaWx0ZXJVbml0cz0ib2JqZWN0Qm91bmRpbmdCb3giIHk9Ii03Mi40JSIgeD0iLTcyLjQlIiBoZWlnaHQ9IjI0NC45JSIgd2lkdGg9IjI0NC45JSIgaWQ9InByZWZpeF9fYSI+JiN4YTsgICAgICAgICAgICA8ZmVPZmZzZXQgcmVzdWx0PSJzaGFkb3dPZmZzZXRPdXRlcjEiIGluPSJTb3VyY2VBbHBoYSIgZHk9IjMyIi8+JiN4YTsgICAgICAgICAgICA8ZmVHYXVzc2lhbkJsdXIgc3RkRGV2aWF0aW9uPSIzMiIgcmVzdWx0PSJzaGFkb3dCbHVyT3V0ZXIxIiBpbj0ic2hhZG93T2Zmc2V0T3V0ZXIxIi8+JiN4YTsgICAgICAgICAgICA8ZmVDb2xvck1hdHJpeCB2YWx1ZXM9IjAgMCAwIDAgMC4yNzUgMCAwIDAgMCAwLjI3NSAwIDAgMCAwIDAuOTY5IDAgMCAwIDAuNjkzNDU0OTgzIDAiIHJlc3VsdD0ic2hhZG93TWF0cml4T3V0ZXIxIiBpbj0ic2hhZG93Qmx1ck91dGVyMSIvPiYjeGE7ICAgICAgICAgICAgPGZlTWVyZ2U+JiN4YTsgICAgICAgICAgICAgICAgPGZlTWVyZ2VOb2RlIGluPSJzaGFkb3dNYXRyaXhPdXRlcjEiLz4mI3hhOyAgICAgICAgICAgICAgICA8ZmVNZXJnZU5vZGUgaW49IlNvdXJjZUdyYXBoaWMiLz4mI3hhOyAgICAgICAgICAgIDwvZmVNZXJnZT4mI3hhOyAgICAgICAgPC9maWx0ZXI+JiN4YTsgICAgPC9kZWZzPiYjeGE7ICAgIDxnIHRyYW5zZm9ybT0idHJhbnNsYXRlKDYyIDMwKSIgZmlsdGVyPSJ1cmwoI3ByZWZpeF9fYSkiIGZpbGwtcnVsZT0iZXZlbm9kZCIgZmlsbD0ibm9uZSI+JiN4YTsgICAgICAgIDxyZWN0IHJ4PSIxMjciIGZpbGw9IiNGRkYiIGhlaWdodD0iMjU0IiB3aWR0aD0iMjU0Ii8+JiN4YTsgICAgICAgIDxwYXRoIGQ9Ik0yMDQgMTAzLjYxaC0zOWMtMS4zNTItMi45NDItMi43MzYtNS43NTgtNC4xODgtOC40MjMtMS44NjctMy40MjEtMy44NDQtNi42LTYuMDMtOS40ODYtMS42NC0yLjE2My0zLjM5OC00LjE2MS01LjMyLTUuOTUzLTIuODc4LTIuNjg3LTYuMTQ2LTQuOTExLTkuODI1LTYuNDMyLTMuNjc0LTEuNTI1LTcuNzMtMi4zMjEtMTIuMDI3LTIuMzE2LTIuNjktLjAwMi01LjI1Ny4zODgtNy42MzIgMS4xMjUtMi4wOC42NDQtNC4wMDcgMS41NDgtNS43NiAyLjYzNy0zLjA3NCAxLjkxMS01LjYwNCA0LjM2MS03Ljc1NCA3LjAxNy0zLjIyMyAzLjk5My01LjY1IDguNDcyLTcuODA2IDEyLjg1LTEuNTI3IDMuMTE0LTIuOTEyIDYuMTg0LTQuMjQ4IDguOThINDl2MTEuOTc3aDM4LjQ3NmMtLjMyMi40NjItLjY1LjkyNC0uOTg3IDEuMzg2LTEuOTM5IDIuNjctNC4xMDggNS4zNDctNi40MTIgNy44MzQtMy40NTIgMy43MzMtNy4yMjIgNy4wMjctMTAuODU1IDkuMjYyLTEuODE0IDEuMTItMy41ODcgMS45NzYtNS4yNDIgMi41MzQtMS42NTkuNTYtMy4xODguODI0LTQuNTg2LjgyNEg0OXYxMS45NzdoMTAuMzk0YzIuNTkgMCA1LjExOS0uNDMzIDcuNTM2LTEuMTY4IDQuMjM1LTEuMjkyIDguMTUyLTMuNDc4IDExLjgwOC02LjEzMyA1LjQ3NS0zLjk5MyAxMC4zOS05LjA4IDE0LjYtMTQuMzMxIDMuMjc1LTQuMDk3IDYuMS04LjI4MSA4LjM1OC0xMi4xODUuNjQtMS4xMDYgMS4yNDEtMi4xOTQgMS43ODUtMy4yNDYgMS40Ny0yLjg0OSAyLjgyNi01LjgxNyA0LjE5LTguNzMuMzM1LS43MTUuNjctMS40MyAxLjAwNy0yLjEzNCAxLjI4Mi0yLjY4MyAyLjU5NC01LjI3MiAzLjk4Mi03LjU5MyAxLjA0LTEuNzQgMi4xMi0zLjMyNyAzLjI0MS00LjY5Ni44NC0xLjAyNyAxLjctMS45MyAyLjU3OC0yLjcgMS4zMi0xLjE1NiAyLjY2NC0yLjAwNyA0LjEyLTIuNTkgMS40Ni0uNTggMy4wNTEtLjkxNiA1LjAxLS45MiAxLjY5MiAwIDMuMjE3LjE4IDQuNjM0LjUwOCAyLjQ3NS41NzkgNC42NDUgMS42MDMgNi43NzIgMy4xNDggMS41OSAxLjE1OSAzLjE0MiAyLjYyMiA0LjY3IDQuNDA0IDIuMjkxIDIuNjcgNC41MTQgNi4wNjMgNi42ODEgMTAuMDYzLjQ0LjgxLjg3NiAxLjY1IDEuMzEyIDIuNTEgMS43MTUgMy4zNzcgMy40MDggNy4xMSA1LjExNiAxMS4xMzkuMTE5LjI4MS4yNC41NTcuMzYuODM3IDIuMTI2IDQuOTkzIDQuMjg3IDkuODcyIDYuNTAzIDE0LjQ4OCAxLjcxMyAzLjU2NSAzLjQ1NSA2Ljk3MiA1LjI0OCAxMC4xN2gtNi4xNzhjLTE0LjcxNS0uMDAyLTI2LjY0OSAxLjgwNS0zNi43MDggNC41NTMtNy41NDMgMi4wNTgtMTQuMDIgNC42MzgtMTkuNzk3IDcuMjk3LTQuMzMzIDEuOTk1LTguMjczIDQuMDMtMTEuOTg2IDUuOTI4LTUuNTcyIDIuODUyLTEwLjYyMSA1LjM3Mi0xNS43NjMgNy4xNDQtNS4xNTEgMS43NzMtMTAuMzg5IDIuODUtMTYuNjU3IDIuODU3SDQ5VjE4MGgxMi44MTZjNC41NTggMCA4Ljc4OC0uNDgyIDEyLjc1NS0xLjMyNSAzLjQ3LS43MzcgNi43MzYtMS43NDYgOS44Ni0yLjkyNSA1LjQ3LTIuMDY0IDEwLjUtNC42MjYgMTUuNTk0LTcuMjMgNy42NDgtMy45MTMgMTUuNDQ1LTcuOTM0IDI1LjI1My0xMS4wMjIgNC45MDYtMS41NDQgMTAuMzE5LTIuODU4IDE2LjQ4My0zLjc5MSA2LjE2My0uOTMzIDEzLjA3Ni0xLjQ4NiAyMC45NjYtMS40ODZIMjA0di0xMS45NzdoLTIxLjA4MmMtMi4xMDMtMy4yMDUtNC4yMzEtNi45NjMtNi4zNC0xMS4xMS0yLjEzLTQuMTgyLTQuMjQ2LTguNzU1LTYuMzUtMTMuNTQ4SDIwNFYxMDMuNjF6IiBmaWxsPSIjMDA5MUZGIi8+JiN4YTsgICAgPC9nPiYjeGE7PC9zdmc+;" vertex="1" parent="1">
          <mxGeometry x="910" y="500" width="94" height="94" as="geometry" />
        </mxCell>
        <mxCell id="P7QgvSndgrQcU59DoDmU-16" style="edgeStyle=orthogonalEdgeStyle;rounded=0;orthogonalLoop=1;jettySize=auto;html=1;entryX=0.75;entryY=1;entryDx=0;entryDy=0;curved=1;" edge="1" parent="1" source="P7QgvSndgrQcU59DoDmU-4" target="P7QgvSndgrQcU59DoDmU-1">
          <mxGeometry relative="1" as="geometry" />
        </mxCell>
        <mxCell id="P7QgvSndgrQcU59DoDmU-17" value="Is this token valid ? ( and user with this ID got this role )" style="edgeLabel;html=1;align=center;verticalAlign=middle;resizable=0;points=[];" vertex="1" connectable="0" parent="P7QgvSndgrQcU59DoDmU-16">
          <mxGeometry x="-0.1438" y="10" relative="1" as="geometry">
            <mxPoint x="1" as="offset" />
          </mxGeometry>
        </mxCell>
        <mxCell id="P7QgvSndgrQcU59DoDmU-20" style="edgeStyle=orthogonalEdgeStyle;rounded=0;orthogonalLoop=1;jettySize=auto;html=1;exitX=1;exitY=0.25;exitDx=0;exitDy=0;entryX=0;entryY=0.5;entryDx=0;entryDy=0;" edge="1" parent="1" source="P7QgvSndgrQcU59DoDmU-4" target="P7QgvSndgrQcU59DoDmU-19">
          <mxGeometry relative="1" as="geometry" />
        </mxCell>
        <mxCell id="P7QgvSndgrQcU59DoDmU-22" value="This user that is from HR&lt;div&gt;has this request&lt;/div&gt;" style="edgeLabel;html=1;align=center;verticalAlign=middle;resizable=0;points=[];" vertex="1" connectable="0" parent="P7QgvSndgrQcU59DoDmU-20">
          <mxGeometry x="-0.1407" y="-2" relative="1" as="geometry">
            <mxPoint as="offset" />
          </mxGeometry>
        </mxCell>
        <mxCell id="P7QgvSndgrQcU59DoDmU-21" style="edgeStyle=orthogonalEdgeStyle;rounded=0;orthogonalLoop=1;jettySize=auto;html=1;exitX=1;exitY=0.75;exitDx=0;exitDy=0;entryX=0;entryY=0.5;entryDx=0;entryDy=0;" edge="1" parent="1" source="P7QgvSndgrQcU59DoDmU-4" target="P7QgvSndgrQcU59DoDmU-18">
          <mxGeometry relative="1" as="geometry" />
        </mxCell>
        <mxCell id="P7QgvSndgrQcU59DoDmU-23" value="This user that is a Manager&amp;nbsp;&lt;div&gt;has this request&lt;/div&gt;" style="edgeLabel;html=1;align=center;verticalAlign=middle;resizable=0;points=[];" vertex="1" connectable="0" parent="P7QgvSndgrQcU59DoDmU-21">
          <mxGeometry x="-0.0567" relative="1" as="geometry">
            <mxPoint as="offset" />
          </mxGeometry>
        </mxCell>
        <mxCell id="P7QgvSndgrQcU59DoDmU-4" value="API Gateway" style="shape=image;verticalLabelPosition=bottom;labelBackgroundColor=default;verticalAlign=top;aspect=fixed;imageAspect=0;image=data:image/png,iVBORw0KGgoAAAANSUhEUgAAAZAAAAGQCAYAAACAvzbMAAAABmJLR0QA/wD/AP+gvaeTAAAACXBIWXMAAA3XAAAN1wFCKJt4AAAAB3RJTUUH4AQICQEzQ75U1QAAIABJREFUeNrsnXl8VNX5/9/nzkySyR5IAiEkYQuyGEAgiDvua21dW6wbWlu3Wlvr0uXX6rftt61f235brbWLYlUKde+3VavWFtwhASTsOyQkISQh+zLLvef3xwQIIZO5CZOZCTzv18uX5M6Ze+88957zOc9ZngcEQRAEQRAEQRAEQRAEQRAEQRAEQRAEQRAEQRAEQRAEQRAEQRAEQRAEQRAEQRAEQRAEQRAEQRAEQRAEQRAEQRAEQRAEQRAEQRAEQRAEQRCEqKLEBMJQZMqUKQ63211gGMZIrfUIYJjD4cjTWgNw4P9RrVxKHfy/aZo1Sqm9QL3Wutrr9e4oKysz5UkKIiCCcJTMnj17jFLqKiClx0dxwEnAFCBLKeWOBXEIp8horb3Afq11jVLqPaClZznTNP+1atWqD+VNEURAhOOKWbNmzVJKna6Uyug6lAjMAU4FXGKhAYnORqAE2Nl12Avstizr1ZUrV3aIlQQREGGoCUW+w+G4WmudCpwAXAM4xDJRYQ/wnFLKp7Veo5R6a8WKFZ1iFkEERIg6xcXFJwGXAUXA54CESPbAAbTWW4DNQC3QBDR3/7yLTsuymoF2oE0pZQL+rv/QWncCrd3Ku5VSSd3+jgMMrXUy4ATSHA5HWvdhtG7zLulKqRQgDTgRmKiUUjE25LYf+AuwV2v9h9LS0lp5mwUREGFQmT179o1KqWnArUD6IFxiJ7AKWKeUwrKsNqXUrq6ec+sx6K1lKaUuUUoNV0olaa0dQCowFxinlBoRQeHZBryktf5HaWnpx/K2CyIgwlExZ86cNOCbWusJwBe7et8DxQK2d/V8D3gRdcA7K1as2CLW7p25c+cafr9/HHCKYRjjuwlKgtb6eqXUqEGowx7gZ0BbSUnJY4CWJyGIgAi2KC4uvgs4H/j8AE+xBvgn0Km1rtVa/2XlypUNYtlBfWYXATMJDLfFAecppYqP1oPpmqx/AfhTSUnJMrG0IAIiBGuEbgMeAsb186tLD/wnjUxsMWnSpLjk5OSvKqUygUuB2UchJmWWZd1VWloqS4kFERDhoHDMA14CMm1+5d/A+5ZlPbVy5coaseDQ4vTTT3d6PJ4rCeyruZLAIoj+8K+SkpLzxZKCCIiIx6+Be2wUXQy8UFJS8qZY7dhj1qxZUwzDuBK4ESi08ZVG4JKSkpJPxHoiIMLxKR7vAuf1UaREa/3T0tLS18Rax9278UXgywSWZwfDD5xVUlIiq7ZEQITjiTlz5vxHaz0vyMdvG4bx6PLly/8tljruPZM8h8Nxq9b6cgLhZHqyQ2t9fWlpqXgiIiDCcdK7fB84o5eP3gN+XFJSslSsJPTy3twOfAOY1OOjZq313NLS0o1iJREQ4dhuBP4D9OZ5/KCkpORHYiHBxjv0LHBTj8OlJSUlxWIdERDhGCXIsFUHgclQ8TqE/ojIRcBbhzUkSi1dsWLF2WKd4wsJdHf8eh5NWutzJHSF0F+qqqq25ebmbiewDPgAY3Jzc0dWVVW9IRYSARGOHfH4B3BBj8PNwNmlpaUrxULCAEWkLDc3NxU4pdvh2aNGjVpbVVUl8yHHCTKEdQwze/bsp5VSt/Q43GEYxiXLly9fKhYSjpZehkbrtNanl5aWbhbrHPsYYoJj1vO4pBfxMIGzRTyEcLF///7zCYTSP0CmUuopsYwIiDB0PY8xQG9j0eeVlJQsFwsJ4WLbtm1+wzC+0OPwvOLi4jvEOiIgwhBEKfVJL8fOltVWwmDQ5dH+pcfhJ2fOnJkp1hEBEYYQxcXF/wJG9jh864oVK0Q8hEGjpKTky8BH3Y85HI6XxDIiIMIQYfbs2TcB53Y/prV+uaSk5BmxjhABvt/j73lz5syZJ2Y5dpFVWMeO53E6gbwc3ZdmLy0pKZHNXULEmDNnzs+01g92O7TfsqzclStXdop1xAMRYpcf9RCPlSIeQqRZsWLFQ0BZt0PDDMP4jVhGPBAhRpk9e/aPlVLf63F4fElJyQ6xTi/2evnTKYbm80oZcaCV1tql4BIgq1ud8Hf9vwVo0bAHqFewF1RXKQVYFhoL2GdhvFRyzZzjPn1vcXHxFcCr3Y9prSeWlpZulbdPBESIIWbNmjXZMIwNhz1UpS5csWLFO72V//KXv5yktb5Vaz0BuEgpVdhb7mzDMLAs612l1Mda63cWL148JEKenPzSp9nA5crhGK1NMw04FaWKAcVR5gjvd+UyDDS0YVkfAmXKMFoty6owFa+svHpucyzY67rrrkvXWn8NmApcC8QH/T2BHOn/Ukp9ZFnW60uWLPmsDxF5Dei+vPfPJSUlN0uNFQERYqu3t55AetIDLC4pKbmue5n58+cXAVcBPzzKy72ptX5iyZIlb0X7d895efksw+n6nPZ50XCjgrFD9BG+hTJWGE5nhb/Tv7jkS3PaI3HR+fPn3wt8D/upjIPxAvCXxYsXv9XLu6l7eCGnSew1ERAhVoZiZs++XCn1t26HDps0v+66676htb4IuCjMl/4n8LPFixcvi4hYvLT8NIU+kIf7WpSaHGlvIoLUAM+jVAtav7z8mrkbwnHS38F3NcRVnXAC22fOvCsMwtGTT4EXFy9e/KtuAvIt4BfdyrxeUlJyhdRcERAh+uJxolJqbbdDXuCUkpKSVdddd93tWuvekv+EDYdlcepf/4oBWPAU8Ls7D588HTBzX1lxt7asTOB0pYxztbaO4xqqOtD6CWUY1abJ0yXXzunX0NeTcD9wHzACYM/kyeycMWMw7/gz4FeLFy9+rktEqum2L8kwDAmlIwIiRJvi4uIngTu6DQ98q7Cw8B3gN8A5g339hI4Oil9/veeL9Mgd8HC/xfDVkiSH1ndhWWei1KXHsHcRhuqq/6mczhc+vWL2or5KPgWXWPAkUND9+P78fNafdlokbnYpcO22bdvOBF7udvy9kpKS8+RZioAI0ROPM4Huw0dvjR8//j3DMB7TEWp8x6xbR97atb19ZCk4945AAxL8N7z0aYGBWoDiTrTOkqfab88EtF6kNb9ece3ckh5ex6+Be4JV+Pfnz4/knd64bdu26+mWUkBrfWJpael6eYgiIEJ0BOSfwIUH6mNhYeFqrfXMSN7Die+/T0ZlZdDP4+HsW3uIyMkvfTIGw3EXlnUPECdPMmzUAf9v+TVzn3oyMGzZZz6O9Wedxf5RoyJ2cx0dHd7Kysruz/uDkpKSM+WxDX1kI+HQE48buokHo0aNUpEWD5TqUzwAPHDrQeF4ZcXdJ7+8vBTUTizr2yIeYScT+N3JLy/X2866ZGGowsn790f05txud1xaWlr3Q2cUFxfnymMb+jjFBEOOW7pVTBITEyN+A1kVFXZc26tPfunT7Sj1dSxrmDy2CKA1vpS0uSHVZs8eyk88MaK3lpycTFNT97Qh/Ay4QR6aeCBC5LyPG+nKbe5wOMjJyYnKfYzatCl0WwYJwA/RWsQjgngT3CHLJDU0kHR4Yx4JL4QeXsj1XXlrBBEQIUI8ceAf6enpGEYUHp9SpNbWhizWOGGKPK0o0DlytK1ymTa8yHDTQ0BQSt0sT0wERBhknoQzfwfbF5SUpJy/dSsJCQlkZGRE5V7ybHgfALtmnSYPLgpsnHeZrXLZO3dG/N7i4uJIT08PeKhKMaWu7r7fwqny1ERAhMETj38CyzSMAxjd2MiJHk/U7mf0Bnsbo6smnyQPLwoobVEzJbTtE1pbGVZVFfH7y8wMbIC/cv16Tt65M1nBR09Cy5Nwsjw9ERAh/OJx4RFDAR0dUbmftH37cHaGTuvQPPYEaqfOlAdoE1NDu6XZ77fQhqLZtPBqzUB39Oyeay+Kf86WLVH5ve6UFNLb2rofSgY+/V3X/J4wdJBVWLErHj/tTTyiSf7GjbbK7SiWJf7BKEhJ4Py8TAwFc7LTOHF4cp/lGzw+3thVS6epKatvYXlNU8jNW1vOv5I5z/wy5L0Mq66Oig0mOhy9e0/wn9/CqXfBJ/KmiIAIA+QpmGfBQ0F7rM7IP7aU+nrSbQ557DrrYnmI3TgrJ4OC9ERumphDksvRr+9mxLu4/oRDm/48psUzm6rYvL+VT2uagr4ftROmkrUt9Gbv/LVrKS8qiqg9fEGWnlsBEXnxCTjtbiiXN0cERBgAFrzT1+e1YyMfuTxzzx5b5fbMPI2mbHu7nNstzSlZKUzKSCKuq1dqaU27z+Tjmib2tHXiUkM3WMLpORl8c3o+uckJYTtnvMPgjqmBlVaf1DTxxJrdbG8+ckiz/LTzbAlI3pYtERcQT1JSXx+PNuAB4G5pCURAhH7ye3jcBFfQ3ltSEp74+Ijek8Pvtz15vunia3o9nhbn5OKCTIqGp3Du6P5tDanr9PH3nftYUdPEqrqWmI+/U5ydxvdmj2Nk4uBuuD9lRBqnXDCNlbXNPPjxFlp95sHP1n7uOmb9+dchz2F4vQyrrmZ/BPcUKa0DYSGDF7nrSXjxTnhfWoTYxiEmiB3+CAl++L8+e/iTJtGUnR3R+8rbsIH0fftCljPdSXx0x6HMug6luGlyLo+fOYmbJuUyd2Q641Ld/b5+otPBSVmpXDYmi9umjGZcaiL7Onzs6/DG1PPLSYznv0+ZyG1Tckl2Ra5qjUqK58sn5LC2voWqtsAKPQUYlsWIjatDft/d1sbeceMiaqs4jydUSJXxb8Cz0iqIgAg2uRh+DpzSV5ndRUWhhgDC21u0LKZ88gmG3x+y7PrPX0/1ibOZkpHEV6bk8uhpJzA7OxVHmIehxqa6uXxsFmNSE9nb4aU2BoTkwrzhPHX2FHKT4qNyfUMpLinIwmdp1tS1BIYXfB7GffB2yO/Gt7fTmJODJ4JhcZTWZO3e3VeRgs/Bsn/ALmkZREAEG3wO3u5r6Wb96NHsmRLZHd5jy8pIt7la59OfP82dRfl8d/Y4JmUkD/q9jUt18/mx2RQNT2H9/laavf6IPzML+Ma0fO6ZXhAT71BxdhpZ7ng+rG6gOSePgpL3cTfWh27QHQ7qIxmhNzWV4ZWVxPWxLFxD7hvwvLQMsYvMgcQIT8L9ofLubS8ujug9aaV6nftwjxzJiDlz6J74Kb5gDG9edhJGFCa9Tx6RxsJzT+SJteXUdfgieu3rJo5kZlZqTL1Lnx+bhdc0WV7TTNrtdzPmo3cDHZCyMlqC9PpHbN3KnsJC2nuEGxlMagsKSG5o6KvI+dIyiIAI9uhzXKq6sBBPQkJEb6hn2JKUsWOZeMMNJOceGYl77BVXREU8DpDscvDQzLGsrW9le1N7RK55Wk46We7YjEx/zYSRjElNpDr7KgoyAsNqBZddRvOOHWz7619p2bXriO9kVlRQHkEB2TN5MqO3bsV1+KbCw3gKbr0dnpbmITaRIawY4VL4AzC8t898bjdl55wT8Xua8e67B4YSmHn//Yy5/HLiUo/sbTsSEhh5amyENBqRGEdanJPKtsEN9zIzK5VRUZrvsEtuUjxVnT7M9nYSWhoDnmJGBjlnnIGvs5OWHTsOK59WV0fF1KmBbIcRwnS5GNZHbhkNa9+Af0sLEZtIKJPYeRCFvR1XwNqzz474/eRt2IDuuv5J991H6oQJQcuOnDs3pmyZkxTPxPTBW2gwIS2R/JSEIfFeTR2WzP6xJxxxvPCaayi65/Cst8qyyF8f2Uyz1ePG0TByZF/14mZpHURAhAGy5txzaYvgsAKA0+8/GLZk2n33kTZxYtCy8RkZfX4eLaYMSxqU4aWMeFfI8COxRLY7jszh6XhS04/4bNjUqWSfcviiv8zy8oh6IBBIsetJ7t2mCiRzoQiIEAoLlh3mujudlJ17bsT3fADkbtyI4fUy9fbbSQ8hDmmFhTFr01NGppEe7wrrOYuGkHgcYFZ2KvW9eCEAk2++mdRue0ASm5rI3bo1ovenDYNNJ5+M7iVEj4YGaR1EQITQPHbgHy2Zmaw555yoiIdWioJ160idMIHMk0KEBdeazBkzYvflVooTMsK3t2FkYjzDElxD7sVyKkXq2LGB/nwvTPjSlw77e8zq1RG/x+bsbNacf35vAvJ7aRpiF5lEjxHegC2p8+c/XF5UxN7x4/FGIdc5wJi1a0nbt4/p992HK8Q9ZM2aRVIE9w4MhBSXk0aP/7AwHwNl3uhhUV1pdjSkuhzsbO4gsaHuiM/i09PRlkVTl+ehLIvO1FTa0tMjeo/ehATKi4pwmSZJTU20p6S0fMPjOU9aB/FAhBDMnz///0W9N2GaFKxbR96FF+LuSvwTFKXInDk0cn4UpieG5RzOIRzYMSXOScP4SeggvyHvggsO/70lJVG71+0zZvDR1Vez+tJLU6RlEAERhog3mLduHRoYefrpIctmz56NMobG6zM8wcXwoxx6ykmMH/Iv2MT0pF5XZAE43W7GXH75oYbB5yM7CnnTu6O1llYhxpGNhLFDejQv7m5rI2/DBjKLisiYNOkIcTB6JAEKOT8SY4xPS6S+s2lA301wGLbmPnbu3Mn+HgECJ06cSEpKbHSkM+JdbM/JZ/iOjfQ2H5I6fvwRHYqa/HxUFBvy+fPnz168eHGpNA8iIELfXB7Nixd++ikAo84/v2vCNThJuUNvZeXRbPobEyKCcGVlJatWraK6l5hhK1euZNKkScyePZvEKM1rHWBEYhxedyINBYVk7N52pMBMmkRyQQGtXeFOEhsbyd+4kYpJk6I3RGIYZwMiIDGKDGHFDnnRunBSSwtpXeHax14eWscSg2z88ng8VFVVUV1dTVVVFXV1dTFl4LS4gfWXVB8ZSKqqqnjjjTd6FY8DbNq0iXfeeQfTNKNug8wEF02jggd+zJw27bC/c7Zti/i+kO5orZOkaRABEUI1UkpFzRuc+PHHgcZj5kxcycn99j7a29tZv34969atOyge1dXV7N69m5UrV/bZuEaSoswUcpMTyHTH4TTsN4pjUnvfdd7a2srf/vY3W+fYt28fb775ZvQFxB2HNymF5iAi0nNoMr6lhfy1a6MpINI4iIAIsVpRMmpqDib2yQ4V7VepI7yPxsZGNm7cSGcfYbmrqqrYsmVL1G3sdhikuBxkJriYkJbIpIwk8lMCghJsea4mkEa2N1auXInDYX/tQ3V1NZ999ll0Oypd/2/KLQjaQeg535W7dWs0vRCXtA4iIEIfnHXWWdHxPpRi7KpVhxrYEHs6UgoOb3RaWlrYvn27rUu1tLREXUSSeskSmOgMCMrE9EQmpCWS5Y4jM+GQh5IQRDw8Hg+bekQrtsOqbvaOSkel6/8dacNoy+p9KDK3x5JeZ2cn+QP4rdJGiYAIxzB569eT1Nh48O/884OnX3AlJ5Mw/PBgwZV9RFENJiKN3a4XazgNxfAEF5nugIdyQkYSo5N7H75au3YtagC9cr/f36e3FskKXzOp9ygCib0MU46JsvAJIiBCEJYtWxbxVHoJbW2MWbPm4N/xI0fiiAsefLDnjvOGhgba+sjjEIx9NnKrxwoKyHL3PoKSmppKTk4Obre738OPO3qEUY+s03lI9PzxCbRm5RxRJruX8DQaOGHFimjcsk9aiNhFlvHGSmOlVETnQXJ6BMzLmzcvuPeRkoKrx16GhoaBxbhraWnBNM1+zR2EkwMh6m33sIJ4GSkpKYwaNYpRPYS1o6ODzs5OTNNEa016ejqJiYnU19fj8QRylDid0at2B/a0aB2wRcesuWSVfmDru9nbt7Nl9mx0ZDeQWtI6iIAIofECEUlvl7pvH6O7wrUf9EAyMmx7H0cjIAe+mxkqVEqM4Lf6J+putxu3O7BvJDk5mRNOCOz87uzsZH1Xro1obixMdDnIPizMfRyuE6cT33L40KIjJQWzpeWI709csYLNEcz/YhgySBLLyNOJEbTWGyN1rfyNR14qWE4Pd3Z2yKW9fTFs2DBycnJwuQ4NBXm93iHzXDr8ZrDnFVqou2VvTEhIOPidjD7EOhq0Zucc4VWM6pEn5KAXsnMn8RGcw7Esa620DiIgQmj+HomLDKuqIqOq6sjjQXYbtwwfMeBrpaSkMHbsWEaNGsXYbrvbo9mr7O+0t8/S9CYVyTZEtbm5+eC/Ozs7D84/JCREL5uh1ZvwaU1HxuEeoTsrK+g5DuwbilDHapk0DSIgQmgGfZuyVoopH/Q+3h0//Mh07C0jcukIEgY9Li70aFv3RjYlJeVgDzy1l7zqsUyL19+rdxFKRFpbW6msrKSqqory8vKY8D6avb2v1+hIG4Y//pCwOfr4bek1NaTX1ETkfpcsWVInTYMIiBCa/wz2BaZ8/DHK6n1OsufmMX+CG29SCt4g5Yf3Ijg9aW9vP+zfSikMw4h6TKj+4g0yDzLKRi6UvXv3Ul1dTUtLCwkJCYd5YpHGZ+k+53Q60g8904QQaZTHlJVFYnPhBmkWREAEGyxevHiZGsQKGd/ZSeauXb17Jr01/sOy+vx8ZJB4WN1pamqipqaGpqYm9uzZY/t7g0Wjxz/A7/W+kvTASiy75Ofno6IYV6opxO/3JqXgjw8sAEifPLnPsil1deRu3jzYt/yStAwiIIJNtNZ/Gqxzn/Dhh6GufVhP1JeQ2GfDYxgGOTk5Ia+7Z88etm3bRktLCw6HgxEjRkTNvj5rYCtC/ZamPchkek5ODhMmTOjz+w6HIybCuu/3hN5S0TY8kEa5rzmQA4xdtSpogqow8WdpFURABPu8PhgnzduwgbTaWltlLYeT9uGH52L36+BDOMn9WKE1fvz4qE6g22lAg9HiDT5FlZaWxsyZM8nJySE+Ph6tNVprkpOTyc/PZ8aMGVEXj3a/2fsEek+xTHDjSUkjLsQQFoDSmikffTRYt7x+8eLFO6VJiG1kH0gMsXjx4jfmz59vhVPYkxobKei24zxkQ5M5Ano0NM1eP5lBEipNnDiR3bt3U19fH/wlczoZN25cVBtRr6U5mn2aDR4f6fHOoIEVlVK9biyMFWo77ItnW+YI0hvqbZXN3L2b1AkTaM7ODvctvygtgnggQj9RSv04nOcbt3p1yKWrqqsB9LkT8SQd2ch7TYu2IEM4SinGjBlDYWEhOTk5hw2FJSUlkZOTw/Tp06PeA6/rOPq9JzXt3iH5TrX7zaD7WXpDK4O2kfaTho0pKwv3LWut9R+kNRAPROi/gDyqtf5BOM6VuWcP6Xv32ipreb005RQEXaXT7PGT5AwefiQ1NZXU1NSY7IH7LB10+Wr/G2ILt3Po9Ls0UNXm6ff3PKkZeIZnE18fOnZZWm0tmZWV1IUvU+V/LVmyZK+0BuKBCP1k0aJFbcBzRy1EWjP5gw9sl19txbG5w2R7U3uv/y2vaepXLzaW2N8Zvnh85a2dQ+q3V7Z29jscS8AFgPe+/VPb5ae8/z4ujycs96y1lsnzIYJDTBB7rFu37vWioqIFQPpAzzH9vfeI77YPoy9qJ02n7tqbyXT3vTmw2WuSn5IwpGxZ2+Hl472NNPtMTA0+U/fpQXSYFu9X7mdNfSsbG9rY3tSOQwXCvB/yRCzS4mPfea/v9A146XKL388rLQYO08eIjfbm0BI6OqjLO+rMzPcuWbLkn9IKDA1kCCt2+Sbw6kC+mFVRQarNVVcA7333V8y1sUKptsPLvg5vj2B8sU1ZfSsQmMc5MA9S3R7oKafGBSbFM+KdbG5s56l1FTT1MdR1UlYq907Lp91vUt3mIScpPqbFo/Yo5n0OeG2rvvQ1Cpe9RYKNoazMXbvIGj2a2oGLyLrFixf/Wqq+eCDC0Xshm4qKimYDE/vzvYSODqa/847t8svu+2/qx04kL9lty7vY1+GlMH1o7CT/ZG9Tn8NXHtOi3R8YtvvfsnI8pgWWRUdVOfvefpmWDato2bCK1q3rSBgxmn3ayfqGNs7MycBjWhhK4XbGXhU6WvEA2NXSyac1TaAUzTn5jP3Q3juV2NTEvnHjBhTyXWt96bp166qk9osHIoQBv9//eafT+R4wz1YFVKpfge6qZp7GrrnnANBgc57AY1p8WN3I6TnpMW27svoWatrtjcm//HEpVe++QcOKZbTt7D3tbsWiJwHYef4V5J5ZzIK7v8G+Di8e04opT6S63RNyx7k9Aek49NtnnUb19JPJWbPcloCc8MknbDj99P5e8uwlS5aUSq0fWigxQWxz7bXX5jkcjhIg5BbuCatWkWMzvIQGXvrjm3SkDwv0JAzFt2eMsX1fU4YlMzFGPZGqNg8rappCljNNkyce/AZLX+t/xIyskSP5xZ+epfjU00l0OqI+N+Q1LarbvWFb6LBoSzXvVtQf1jlZcPXJ2J2OLzv3XJrs7w15bvHixTdJbR96yBBWjLN+/frmyZMnP24YxnxgWNAGraKCsatX2z7vB/f/nNrxh+IdWRpOGZkeNANfT2o7vGggK8bmQ9bvb2Vt17xHX2wo+ZTbzypm16aBxetrb23ltb+8gHa4mDCzmFafidvlIC4KO+1rOrxUt3kGtNoqGE+t24Ov2/kUUD9hCmM/fNvW90fs3EnVpElYITJPaq1/smTJknukpouACIPEhg0bzHXr1v1m2rRpFwBHzFCm7dvH1GX20yZsP+8LlH3++iOOJ7kcjOrHcEx9p48Gj5+85OivzLI0fLS3kT02ltmu+XAZP7j+qrBct+SDZSSOyCV57ER2NHVQ0+4lJc5JYgTmRrY2trO2vpXadi8tPjMs/zX7TFq8ft6uOHInenNOHtnb1pOyd4+t+xtWXU1133HCrlyyZMmTUsOHLjKENcS47rrrfgXcezC3Rl0dM9591/bQQuPYE3jzx3/AF3ekUJyekzGguY3MBBezR6SR4IjOtqLaDh+bGlqptzGP09bcxB3nzKWlYX9Y7+G17Yfnx8h0xzEqKZ5xqe6wXqfR42dvu4fNje22siIOhAaPj9+v710k4tpamX/zefbPNWoU6846q+fhfYZhfHHRokVLpUaLByJEkLVr1749ffr0ZVrrMSO3bRsz+eOP6U+Qp/d+8Ditw3qPtOo0FFOH9T99bbvfYkdzB6rHfonBptlgZ01uAAAgAElEQVTrZ219K+v3t9Lhtxdp988/+y/WLw9/Rr0ReQWMnTy1m01Matq9bG5sw9Sa+k4fyS4nLqP/fbatje3Udnj5rK6VLY1t1IVxY2RvlNa2UBHEkzPj4qiZchITlr1p61zulhbS9+2jZty4A4ce6ezsvPLFF1/cLrVZPBAhijwZSEI1z275d3/wOFVFxX2W+db0AuKOwpNIj3cyNtVNQYp70H53faeP6jYP25ra+/U90+/n6hNyB+Werr7zXr5833dCltNATmI8afHOoJVPA+0+k6o2D+YgeRl98cymSvaFiPt11hP/xRibIgLQlJOztGzevPsXL14sK62OIWQZ7xDGgssN2ASEDEBVfeKskOIB8FldC3NGpA34nho9flbXtrClsZ285AROyEgKWy9lZ3MHlW2eAQdG3FdZMXiuvMOeM6+Ave0e9rZ7YvKd8lk6pHgALLvr/zFsx0ZSK+xFXM+qrn5ExEMERIgh7oYWIPdJuB94NFi5/eMn887DT9oa6qoN0/BIm89kU0MbmxracDsNClLcpMc7GZlof5J+b7uHRo+fPa2dtPqOfnnqqDHjBu1ZTDvtrGPinVpuY/lzQAkVH3/lAS764R0hHV/gG1+BjVJjjz1kCOsYYfYrKx4+ZcnvfzjlpacPm1CvPnEW733nl5hx9hvur0/L7zPybli8Jw1up0GSy4HTUPgtTaPHj2npsKfaTjA0Y+I9jG7bSErhRWH/LfPmTOHdt15npyeezZ3x+PXQrVZ/3lR1MNSLHbI3rOaSH95xxCKOqhlzGfXZp0V3wjqpnSIgQoxz8kufPgz80LBMJr3zGvEtjWy+8CraUzP6fa6BrsaKRQoTPJyQ0In2NOOv28Af/voe9/4kfMFezyyezBt/eJD4EVNR8Wn4tWJth5tKr2vI2WpXSwdLtvY/irrT76PotT8fFJGaSTOoLprN8mvmSvsiAiIMJQEJx7ncDoM7i/IHtGIoVnAqTXFSO8OdfrTfg1m3AW0GetYLX1nKXY88c1Tnzx2RwffvvIqbrjizqyYZuHJPPjhMWO93Utbups0aOhkTXtuxj82NbWE7n6n9SaXXnt4utfPYRfKBHDucGq4TdZgW/6ncP7SNkdzGcGcgJpTVtOugeAAsuGoe7//lYa69+JT+ezRjRvI/D17P9vd+c0g8ALSFWX8ojtZwp59zUltIdw6NHCp1Hd6wigeAoZyTpFqKByIMDQ+kGQhr3tivThnNsIShNxQzN7mNzAPi0bwHsyX4zmmlFEuXr+ejVZtxOBys31LB2i0VpKUkMuvEcWQPT8XvN7nwjOkUF40PuXnPkT4WI+nwsGWftCZR74/t9SqLt+1ld3NHeBsXh/OBT6+c/T9SO49dZBVWCNZWLPi21twE7DeU+v2Jec/8JUZvNezxRF7aXsPXpo4eUs8r1WEeEo+O+j7FA0BrzVlzpnDWnCkhz21n57fZuBOUwkg8FEjwlOQ2lrcmURujIlKyryns4hGwl5U0FOv8uspbHtSWditF64mjFz4mraB4IAN5ic5F8y/ryAB1a6blL5wRc73ul5frwQhtkZ/i5rrCkUPmuZ3SNXRlte3DbNwR1XsxkrJRRiDYpHK6eKsjH9OREFOVrry1k79sqR6s0z+y/Jq5Dw+Vd2d91a3zLFP/p0c98gPzp+UvfFlaRfFAbLGt/qvzOtp9/wrSHk8vK1/w3rT8hefG0j0P1n7l8pYOFm2t5suFObH/MivNcKcPs6kcq7U66vdjtR2exc9q2s/P947A1DA83kl+SgLp8S4sDRqNX8O0YckMT3ChBvGZHmBvu4eXtu0dzHcyfwiNNJxu+q1/BWkjXyorX/CNafkLfyOtowhISNrbfPNCFDmnbPeC4mkFC0tiR0EGr7mpaOlk0dZqLs3PJD1+cOdEFIF5CVNr9nf6aOz00eIzafWbaDQKFejBq0Byq06/SUOnn6oOD/PT6/Bl1cfse3VRWhOP78uizTJo9Ppp7CXs/PK9jQGxIbAabnyqm4wEFwYKC028wyA7IY6CVDfGUYhMRWsnr2yvOSxk+yA8yy8CtwyFOq81j9BHbEDDUL8GREBEQMJWO34AfC4WbmXGqyUZmIO72qeipZPfrd/DBXnDmZ2VGrLhCjTyCp9l4fVbNHn9VHd4afL6cSowUCgFnabF7pbOw0J7DHSIxxXjawo18KXh+3m6NjNkWYOAQG5oaAvpdY5JcVOQkoClNUopJqUnkhEfh0P1LjBr61t4Y3ddJH7ykMh9vKnmK/O8HvOcPr1JSyOIgISTy9aUL5gzPX/himjfSJzpHxuJ6SwFvFtRz7sV9eQnJ1CQ4qbJ66fR46PJ66fJ68diYGvDj5fJuHDuUj9wpt0tHezuloL2g6qGw0TGUIocd8BrWb+/lWavPzI/Vg2Np+rzmi9KcyYCEjYcDoVpajsV+DYg6gKCJjnSLXB5ayflvYT8jqYT0D4ENu05iGxPVhFYPVbV7qEq0gEcdez32tdX3XKD6ddZobVQ1hsF85SFnj0Sv/krm0W/srZ8wbRo368y1Eh5avDC/mEx78m8uH+YPKgYwvTrZ+1pof6RWEsExBYzCv7cBNgVkeuj7oDI8CwALjRvNaWF0bAWKowew4etybRax1eVG/diacyOcqzbc8vVNtvAymn5C38gNUwExDbT8hd+y47bquFb6ypuyY3qzSoVJ08swGM12fgGMs+gFM7hJ+AaeRIJk6/CXXQD7mk38VHaJbiLbiB+3IW4RkzDkVYwoPtq8DtZWJd53D2P4fjmxuq9WZb+o82ij0rN6h2ZA+lbHp4DbgxRyKEMbgMeFnvFwJCEVjywJ5f/zdtjy3cwkkfiTBuLY9iEXj8f3ZVZ0UjKxkgK7C7Xfg/+2nX46zZiZyGtAh6uzmGH5/jTeaUYC3wYa/e1tmLBbVqTbuP+9xblyf4P8UAG9PKrB201Wqb+nlgrdvisPZHrd4ylpC2plxfewjlsAnF5pwc8i7HnBxUPgLFpR65EVc54XDmzcBddT1ze6Rju4PMaFd54rtsxjrJ29/Fai2Ju0mdt+Q0pWvM7W11ILXs/xAMZICeOfmZvWfmCt4CLQ9mxrHzBw9PyF0bLCzHlaR3OHp+LB/YERhb9XTMZLjQ3ThrFnbl5ts8TFyKkvSN9LI70sQD85N23SHVqfCji0axsT2JDR8Jx/RwMpzMj1u5JGa77taVDZkxTSq0pynvmp1KbRECO4m3jx+iQAgLwXaI0jKXQIiB9vuSHhpmy+hldeGNDG5Mz7MUE/MwcRUVTpxi8Rxc+lijbfWOWZenv27t1/Vt5gCE6CGKCvpmWt/Bj4AMbRV1rKxbcGKU62iZPyh5zR/RvlZbtHOHA7OxUMXDPd9OyYsz7cHwfe/tWl07LX/hHeYIiIGHo4WOzx8IT0amltMpTskducv/mIjpN+w3gYMcJG5oOiI6PHe9jQZFS6h47Zd2Jzkfk6YmAhIWi/IXv2/RCUjZW3XpNxCupsqrlKdl84dXQPPcQ7nyNjKGbedROTCulWFmY+cel8vREQMKG02kstFPOb+ofR/re6g2jQp6QPQYz+qxfNnT2RkyswiqruHkScJHN4rfJYxMBCStTRj29EMVyGy77xLUVC+6N5L3tuGpuhzwhe+xubh+0c0vA1t698thwPtSfbBZdWpS3cLU8NhGQ8KNZZPN1/XykbqnkO/lfKH0oZ6eW5JK2KK1t6WfD05/XQxSkF9KifQNryxecpjWnhWwMDQWKb8kjEwEZFKblL3wcCDlcpLWet7Hq1osH816WP5g/bflDBS9aWr1m4Rwj+mGP2g7voJ3bIRFbjyDO8oxZ/lDBtz/5Zmr0VhgobA0ra81T08T7EAEZVIMp9Qs75Xx+a9AysZV+d8w8lCoFrgn0fA3EA7HHW/1MpNQfqzrlERxZD5RjGPA/RnxGx4qHCn756QN5RZH1Pm6ZqTXzQj5npdCW9TN5YiIgg8qJec/82uGw1VJcvab85umDcQ8jMhz/GZbicHW/jzjLKw/HBvs9PlbX2R/G2tZkf87EZ8oQVk88xsFVvI54l/pmZpqrbO8vJ0QsFbRG/8Jm0UenFTy7W56YCMigY5r6AXu9VzUoO1lT3Q4yUx2MH+liYm4c+Vkubmp5iXH+SvFEbLDC5ubA1XUtLKtqYFnlflvl/76rVox7sOFWFPr2sKDlRQqyu97TbBfDUx3Eu1REIieUld9yL9jxPgB/h+z7GADS2gzUNa5YoO1EaVAwsSh/4dZwXrvh8cJG+picbDCG8X+JZ7MlbgIr406Uh3VE4wavXDSd0cnB41Rtbmznhn+txegq/+RZk5mVFXyn+aMrd/Lqzn3HtWBM9O2g2LOaszpLGOOv6Kszszzj61sHPcx7WfmC7cA4G0Xvmpa/8EmpGf1HYmEN1HVzqN+Zfn2HDQX5OXBlmC+/py8BybD2c1PrK10upp+PEk5lm3M0jcZw/pY4DyfWcf3sFPDjlTt56qzJvX6+rr6FBz7eetA9V8C3PtzMbVNyuf6EUYeVfaeinnfK6/iwuvG4s+N4/x5O6VxOsvbwhbY3DhvQCOEJ74mAeNxhUzw6RDzEA4k4Zbuvc6LiW4H4UO6xw6HTp4x6tilc1254vPC3wJ0De+Caba7RfBx/Mi1GKu+6T6dDxR+Xz3B6ZgoPF48jJyngiXT4TZ7fUs3TGyqDVgylFLdODkT5fWFLFZ3+40OMNYpC/x5O6fyEBO3j2rZXMRlwpOFXMr6+9epY8D4UfKkof+FfpUUTAYk4aytu+YnW+rsh3Tyn8ciUUU8/HEYBeRj4YdjO58jkb+6z2OoaS0n8DIzjaD+DBiamunEZinWN7TIp2A0TxcUdS5nk28n5He/j0r5wnXpQBaSsfMGDgJ0VVea0/IUyCnMUiPGOpvGx9B+UwXdDzYX4/dYPieGMhRlmHTd3DXkBNBup/Mt9BpXOXF53n4XrGB7yUsDW5sBG/uNdPBQWn2t/n1yzis/3GJIKM/WD+juU+pmdCUqHQ92BIAISLaYVLNxdVr7gETveQFn5ggem5S98NDwVZHDTLKRazVzZ9gYAX2/6AwYmb7rPodqZxf8lXkyHpGA/JjCwuKT9P2SbtVzb9vcegjE05bSs/OYntL3K0Tw19xkJ1y4CEuVem+I9rW0NJz0MPDoUf6OFg4s6lgGwoOVl6h3Z/N19Bk40/0g8m0YjXV6EIYAPg4s7lpFt1jHHs5bJvs3og0JhHCP10bjLjoAoxQJ5I0RAok5R3sIPysoX/AO4LERRd7jS3g62BxKK4ea+g0Ne17e+ih/F35Iuo1MZfJJwKluduV1JZIWoNqZdQ1IpVgPF3g1M9m467Kno6InGoOwDWbfnluctexEtlxblLXxV3hARkNgwosv4hd9nXWaj6NcIw1yIpfW2WFr/4ERzVdvfAfhy69+wcPCu+zRqHcPZ4RrPh8fZxHy0MLC4uP0/pFvNnOwp4wTf1sOW08bQE/CF+4Rl5QtO0Vpfb7O4bBoUAYkdpuQ8vbSsfEEpMDtE0ZFrKxZ8oyhv4a+PqqGweNOK4fVzBiYXdrzfrSdsUhI/m3VxhbyXcBq1jmHy0oSJTLOe8zo/othTxonejYd5FcdZVIIbbHrlb0/LX7hU3hwRkNgaLlDcoTUhY/xozXzgqAQk7Z5t+xseLxwyttE4mO1ZzWzPam5ueRGAHa4xfBw/ndL4WWxwjRMPxSYjzQbO63iPk7xbugSju52Pz3VkZeULTgHsrqiSgIkiILFHUd7C0rLyBZ8BM0IUPXn9nlu+OnX0M384nu01zreLcb5dXN/6NxSaNiOFvyZexB5nDh8mzJENSgSGnIZbLVza/jYzPZuY7NsEsTkkFW3s5vB4VbwPEZCYxXAYP7JM65VQ5UxLPwAclYAYhsI6RlLgaRSJVisLWl8OeHOYBz2TdiOFFxMvOKb3onQn09zP+Z0fkma1cm7Hh6RY3SMHHyuyqjvDdaZNe78yz+s1bW1K1FrfI61UeJGOXvjd6VogM6ThDXV20ehnBtwbav5toTaPo5BWu5w5fJBwCu0qiX8lnkGLch8Tv2uk2cj5He+icPDF1tdwHB++1aMZX9/2YJjq2zvA+TZaur9Oy1v4JWmhxAOJbUVW3K01S2wo9w+BAQuIabEbKDhe7DrGX82Y1sDKy9tbnqPZyOClxPNIwMO77nlUObKHRG8ow2rhc+3/BBRXt71NXPg648cd66tuucD06/Nt1EkcLutWsZh4IEOCtRULdmrNmJD9MJg0PX/h5oFco+HxwveAc8TaAVqNZP7tPp1KxyheTjw3Zoa8TBQXdXzCeP+OXoakjlfC44GsrViwS+vQnSiHQ/1+au4zt4vdxQMZGtVD80fgJzbU+9fARQO8TIVY+hDJViuXt/0TgDuan8HAx3sJZ7Ilbhzvus+mNUIRhzVwTudycv2VXNf6Kob00QaFsvIFl9gRD6VAxEMEZEgxLX/hf3fFyApl3wvXVNyUMz3vz9UDuIyk3+wDCxdnd37C2Z2f8LXmRSgsVsbPZoMrn3+5T2evY0SYrqM4s3M54/y7uartHeIPG5IS8RhEFtlq4JyGbBoUARl6OBzqJ6apQ8bIMjAeA748wM6uYNtYBjM9q5jpWcX1ra/Tbrh5x30ObcrJxwmnsd2ZY/tccz1rmeDbSqGvnLmekuN2/8XAUR1H6X18AbATgK3a5+34sdhbBGTIYVr8DvieDRtfV1a+4FfT8heWitUiR6LV0ZVFLxBGcHuy/fQUDzX+ioSu3BgiHpFlw56b3X7LnvcB/HJawV/8YrXBQ97+QWJa3jM1wK9C9owDfsRlYrHocaJ3W7/KJ2ifGC1K+C31bSDRRtH90/IXPiYWEwEZuiKSv/ABm0V/uGbnTf0KEGXI8HrYmO5dY7us7zjZqRHD2J3T+KmYSgRk6BvYUL+zU87hcvRrl6yhREHChdWPkdxTPZ+JwaLE2ooFD2NjZYJSart4HyIgxwTasL5nqxGzdL9ynIt+hBe7A+Un+LaKsaIhHnsWjLCZuA2NvkUsJgJyTFA06tkG4F07ZcvKF/y33fP6TKtDrBs+zvSU2esQyOK3qKBQz9rsWK2elrfwfbGYCMgx9PLzHZtFH+jHWWUmN4yM8e2wVW6Od4sY6+jp1+rPst03n2hZ2t6GW62/LuYVATm2vJD8hSuBjTaKOsrKF9jdNSvLE8OKvdAn432bxVRHjXb1qwNmqIdteh8fFOU/+5HYVwTkWOQrNss9LgISeU7yldsq59KmGCuCrCm/ebzWXGXHzdda3y0WEwE5JpmWv/Bj4G077v2G6lvt5HaWTaBhZLJ3lQ3FVjIDEmEU6rf2nBp+Py3/2TKxmAjIsVsZDPW8nXKm37rfRodLPJAw4tIWZogVojlWqxgqPDXB1hrCst0LZgEX2jzbc2JXEZBjmqLRzywyDLU0ZGdKM62sYkGo5DfrxKLhQ6PICJGbY3bncjFUeLCVBMU04x5ra07BxtaPp7o8fEEE5NjGsnTIOD5KaQyDr/VVJv3rW99HAiqGV+A9a/v8PNOqFyOFo9ExVEgBeeEvv7mx9L3Z89Z9UsTyt09h5/oJNO9P67VKEUiLIIiAHPtMy1/4JwW1PY97OhIo3zyGT/95Gp/+8zQ+fuO0eX99+fEr+nx4iv8Si4aPCf6+Nwn6cImRwuHtWVbIjJ3vL1v10D/+8Q+WLl2KUop9e7LZWDKVbWUTexb9UVHewk1i1eggE7HRUG2n+r7p178H8Hni2L62kKb6tK7eGWzYsJFt27YxfcaU24HXgp0n7e6tDzc8XngNMEWsevSYJPT5uWQTDMO7ryhLu3tbn5tuRoxwf/sPv3928oG/Fy1axAUXXMAVV1xBfXUm+2uGM/OsUpxxPsB6SqwaPSQgRpRYX3mLbqhLYeOKEwFobm7mzTff5L333jusXPaIxFP21bR/2te5Gp8ofFdrzhOrHh0vJF/JC8nBnb7Xa24jQXKYHw31YM3O+Pr2XSHKbQfG9fbBnXfeyUknnURSahtFp655qChv4c/FrFHsEIgJotTbNfW9W1dPRinFm2++yX333XeEeADsq2kPGdcn/e6t52utLwDqxLIDx6P6jrTr1hI95qjMq7jahnjcHkw8AJ588kmWL19OR2sSIh4iIMct0/IX/tr0O3jsscd47bXX+ip6GzaGqIbds+1dpZkDLBXrDozxvj1BP/NLVTmqYQ4FF6XfvdXOuxkyevWf/vQnnC7zHrGsCMjx7YXoxoWbNtma/7PV00q/Z+vOjK9vPXtN3GQx7gCY1UecqyTdjpYR3wGhYVH6122Jx6N2zudyGZ6bbrz9cbGsCMhxzdduu99u2OnLsJeFDYDvDntI9kwPgESrIehnJ/cza6FwiN+m3mDXePfbKeTzWXeJVUVAhADP2yxnO1KvicFfkz4nlu0nTvxYQbyMDLNWDDQAdrsK+HvShXaKPmzzlJ8CT4tlRUCEAA/aLNevhFNPp1wrlu0nGiNovo80SwRkILwfP4OTE1tntZc9d3tH2XOnheH9lonzmOp0CdGmmkAEXjt5DB7sWYE61jyXoRWzQcUphQF4521WKA2tRiLJVrtYuB+MNWspd2T1Ii6SC30glMWdxCx352XAZRpoL3sOpRRa6xLgTYdh1KScdPNMr89WaLelwOtiVREQ4XD+YlNAHulc94LbsiyArxiGyrUsfbCJ013/1Dow3fv3xAuY3yr1rT8U+IMJiDjrA2FVXCHFPQIv6MCLWgwUm5bFujce47nX3+fHT74a6nQSeSHGkFoRG3xKHzvOD3DvzZfE729q/WGXu99NPHo2dgf+LwF7+8sws6rX46aswBoQLqyQCzpGjxzGd2//AruXPsHUwtHBir0D/EcsKgIi9E7QgHAOh8G/n/8B//2tL5GeEnox1oHlppviThKr9pN0qy5IRZFEUv1FdWV5bDTtDXRkDUul9NWfcmZxr8vQF4hFRUCE4CwDPuztg/cXPczc6RP6fcKKXoZihFDi23tjl2W1iXH6bctA81Lrsz9SrrXmV9+9sefhl4EqsagIiNA3R6Tk/N4dV3DSlDEDOlmtkSwW7SdWkCqRJcmkBiwg1d74fn1v8vhcbp9/vngfIiBCf2hevXDLnGnjDzt20RnTB3y+diNejNrvRq/3uY402QfSf1SXgPj7v4ItKyMFgDOLJ9O+5jmZPBcBEUIRH+d68wd3X33YsZNnFPa/3oopj0JAeifHXyHGGWjHyOp/M+PpWtb78uPfRCm+2bbm2ZFiSREQIZi3UPb8t0zTmnfO3KlkdvW+AN5fsbH/D7VLQeK0rMIKmweiG8Q4/TamddCm/e3UPPf6+9xy9dkkJyagAcNw3C4GFQERgnoN+mBcrIfvuebg8cX/+Kif4nGoqmbKuH2/cfay2koDWrIRDuCdDgiIA82B1/LDlZvwm1af3vPVX/8Ve2sbeeIHh6Y+tNZ3i0VFQITeOmoVLxoaph74+5ar5jG1MA+Ap1/+Dzfe/1vbPTilFAd2FOaZ+8W4/cTV63JdJRsJB9YpOvjvVtPAMBTX3PO/pJ50Mw88uogPSjfhcATs6nAY/Omlf1N4wb28uWw137/zyp6n2ysWjcUOlxB19uyBzGR1YIcuADd+4Qwe/J+/APDy28tZu6WCay46GQ3EuZx4fX601ny4cjP/fPo7B79nWtY+IBvgBO9nYtz+VggdbHOmCEi/O0aoruErTYvp5IWX3qKpJRBa54kX3uaJF97u9XuZGal87bpLaW43SU10HPCsxQMRARF6I++Ua62Otc+/DFwNUNvs57YvXcCvnn2TvbWNAGzeWcWPf9f7ZvU9e+sZPXJ4V0XjNeBrAPFaNr/1v0LoXhpCJBfIAMkyG6lzpLHLE8f/Pvumre/ce/PFDE91YVng8WmSEhxfiJt6/VKxZuwh3aoYwV10wzXAd1o7LbJSnSS4DG679hxb3/3Rb1890Etbamr1iwPHL2qXyA/9xSF5VMLK2Z0fAHD9r97w7KoMvRR68vhcvnnzpYH32YDEBCdxU6//m1hSBEQIQeK0G3+WnHDokdz/lcttfe/5v33A4n98vCCh6Iazi7ePrQbwo8iwmsSoIiBR5fyOj9Gmyd43ltjalPTjb36RbutAME1zkVhRBESwiTqwdAVwOgwe/OrnbX3v1u8+NQYgye8YB3BT6ytizHA9ExGVAZPvryBryf2Y7aFDwUwtzOPiM2f0NP7zYkUREMG2gBg/6v73V20OYxGI0DtKoQoMNDe2virGDBMy/zFw2r0Wb7z+sa2yv3jo+p6dqWcSi258W6woAiLYJOHE6x9WgcQ5AORkZ3D958+w+/Wvaq1yf7b/J9LoDVgshHDy/dfq7BZdembx5EeAR4BHEhLiLnIX3XirWDDWvXMhJulc+/ztltYjIbDKauIF37ST8rOt5g9zS+I89fPEggPj/5Iu5cmULx12zELxzt7rxTgDIPMb2zAtW7J8Nt06TsLQQJbxxqonUnTDUz0OzQEuDvG1pKfe2DbvnvMyxIBh7mUptHh1A2D+nBRe+LQ5VLGNIh5DExnCGjrcb6eQ15RBmKPBo4JVCbHrQPjupcOJc4YU3q+KpURAhMFlPbAqVKEzJyaKpY4Cf5AqYWCJcQZATrqTFd8vYO54d7AiTxIkkZogAiKElzv6+vCnV2UxZ2yCWCnMAhJYxiu7+gdKwXAXb907mjfuHc0ZEw8JidullgJ3iYWGLjIHMrRYQWCseF73g/PmzeOrV57GxY7XwfKKlY6CYBkJFX5AEnQdDaeOd/O3B2dijb0MnTQS38jTR48qKBTDiIAIEeRs4AEg8dYFN9901tnnjDn33HMBaOcujMZtOKqXYbRU4qh492BWOMEewTYNNhqZJFsdYqB+G1Thn/AldFwS/vyL0e7h3T+dUFlZ8a3c3LxfiqGGan0RhiyVlZU6VOV1VH2Ao64M5663wNciRgvB88lXsn8xDOwAACAASURBVCj5iiOO/7HuO+T594iBbPhw1rAizJHFmLlnY6UU9F1cW5/mjs47RewmHogQQaqqqh7QOsTKIK0xc07HzDkdb9GdAUGpWYlRtxpH9VKMpnLpQ9jsUdU5RomA9PqO+fAXXIZOHI5/zBXoxGz6tWJNGXNramoyR4wYUSfGFAERIlVvtR41gC9hZs/EzJ6Jb0rXJl/Li2vH/6E663HseRfVXntci4oKstqqxUiSl057MUedi5U+BmvYDMyRxQfT1nYr1O/TmqZ5J/BfYmARECFSDZ1St4X0QOxgxOGbcHXg3yd+7WAj4Nz+MsrXjmPfGoz9ZWAdH/nVgwnIfuN4mkC30Amj8BecA8rAHH0uVtq4g5kuD2lFeJY2a62vFQERAREiRE1NTbLf7x/EDR8K//hAXnbfpMDfyt+GY28pqnkrGE5U536c5W+Bv5NjaTW4FaQH3aqOweXRVgdmzllYw6YE/na4An+n5h8pDnrwNlIqpaZKrRYBESKEaZoRXjuv0c5E/KPPBM48eNQ745ugFJgenBXLUO0VXWKiMVprMOpXo9oqQMUNGdu2GL2HgTFxDK2XRJvgTMDMmoOVNgaMONB+cKVhjizGSh0b3IPQkd00qbWmoqIiNS8vr1lqtwiIMPgVzh1DNwNGHP6C84N6M6BR/g6M6g8xmjeDkQSGC/ztOPZ9htFSAWZrYJhMGURnDsYC5aDRkROkl+wIlIEoeVyag/MLjmR0/DDM7OnopBywTLA6wJmAP/8ydEIGGM6+vQYdWzvrHQ7H50Fyf4iACMIRDR9opxsz73xMDhca39QgoqMCIQwxO1GeJpSvA+X3gLcB5WkEqxPl70pS5K0/8hSuDFAG2uEGZyI6Lh3iMtDOeHR8CjouJdArRx/WmHasrYBeVjubk66nPe/ObrfYJXSWF9XZgPK1o3wd4GtGeRrA7ECZHYGNnf5eThgX2A9xxP254tGOeHRCOjjcXffXTTz6I+xDCKXUeKkrIiBCZLjmmBedAw2g4UK7MxkUn0sfGZ4k1Z0ELUdmzzMJMoGsHBG9v2MVy7JSpFoPPWSb8hBEKTVBrDA4pMf1PtfhkP0yg811YgIRECEyxIkJBgeX0btQuB0iIIPcKRohVhABEQaZqqqqaVpLboqIC4sSARlMtNZiYBEQIQJMEhMIgiACIvSbuLi4KWKFyOMXry8S3nWaWEEERBhEfH5JbBQN2iVV8OBjec4UIwwtZBnvECPhxTmYeRdjpeSh3Zn4x14ec5vChjKN3t4F2pSc6OFHKVxbFoPpwVFbhrHv02FiFBEQYVArXRyOPe8dDKwRt+oxrIxJmCPmBHYi554T2J0sDd6AqOrw9XpclvEe7Xtr4Ni3GqO2JNDwbH8V5Ws/rIjLFTdWDCUCIkQYo2ETRsOmQCVc94dAFrj8i9DuYZg5Z2JlTBJBscm6lt5TAhuiH/1Da5x73kG17cVRU4pRX0aoEDU+v6zEEgERBpsv26q8u98KCMqmRV0HTcxR52Gl5WOlT8IcdZoMffXsJCvwW7rXZi7Y0JYAyuzEuePv4G/BUb0co2EDqJ4bMm1pgywQEQERBpkB7kJ34Kj6D46q7scsdHwK/jFfAIcTc+QZWBkTj1thafdbQZu5D+rauW1cxvH95llenJUfoFrLUW17cZa/Cb1FKVYDjlx8hlRvERBhkHvJ4VtRaqA8bbg2B7wU14Y/HxIW1zD84y8DVCBdaf6lh4IPHqO8tbct6GctXeJyzA8EagvVXoNz1yvgSMXYvwFHTUmQuFzhDXHvMGQ3ugiIMHg95J8T77Gsrkiwg4mB8jXi2vTCwSNxq/4XtA8rtRBrxOxANFvLD650zOwZAc/FGtrDPF4ruDwoYJ/HJCveMbRfIqVQvlYcVZ8EcrWgQFsYTbtw1HzY9QyjMxVhmj6p5CIgwmDRfFPN3aZl4tqyJJDDfNebKF9rBBsfF0bLLoyWXYcddh3svfogPgV/3sXouLSuxskPhoE17CSs1Hy0O6triCyW+vIqkLo1hGv3VnUzN44dHoNDfIHw98rbjGrdi9GwDtVZC6rryWgTx75SjLpSMBJDCERkxUMnjcJfcBE6YRj+sZ+j8iqdnZubu09q+xDpj4gJhg6VlZW/BbonpcBo3IKj+iOcu99CtdcMkWESPziT0fEjsNLzsVLywREfGCbRJmCiXcnopNFYqePRKXkDu46/HaNlD6q1AqNpMyhnYHxeOcH0YDRux2jcivLsQ2Fw3shFOPoQtlyrmaf33QEotDsXK2M8VnphQAwtE/ADJlb6FHTSKKy0CQP2FlVrJUbjFlR7ZVcnwdF17wYoR9fnOzHaKsDX1DXvMBSqs8ZKn4g5chb+cdeiE47Y+vH93Nzcn0htFw9ECD/XHFkZC7HSC/FNvjmw1n5vCUbdSpy73kB5mmK02+IMJIpq342jfXcMJIt1YODtUzwAKo0UDgRvUB1VODqqcFR9EBv2jHXByDklsAE2OSfUF1xSzUVAhMFoJ5TK0iHSlJojZmGOmIVv6lcDHkrDBhw1K3DsWxPYxKUcYsjexMExxkZTKJF/QmtxPP7R56ETs/AXXot2Jvb3DNcBD4shRUCEcPfl+r38SmNlTMbKmIxvEgEPpWYlRt1KMFw4d/0D1b4PGcmEcldoAVFoFBot9up6vfyYo8/FSh0HCvwFl6HdmRzN/JZSaowYVgREiMkKb2Fmn4SZfRIAvkk3dYnK6q4JVidGw3YcVf8CdXzlrNrqzLJVzkQdh36IhU4Yjpl3AdrpBmcS/rxz0AnDe+20HCUyhCUCIoSb6urqEyxrEFb/aAszezpm9vRuB38E2sS54yWUty0wadtRh6PyQ5SnPgLLiKOgrTbL1TnyyDYrjs2XTBlYw6ZhjpwdWKJttWLmfw4rpSCiXnZlZeW43NzcHVLrRUCEMGEYxiWDIiDBmlNl4B//xcMPn3Tf/2/vzOOjqs7//z53sicEJAQUgVYrigJBe4GZWm2Bum+4MHWpxP5al2+ttt+2tnaxdWttbS1u7devv9YqoFUYtSouBatg6zJDOSqriIoKyKKsgSQkmbnn+8e9qRgzS5KZZJbn/XrNC165Z+6589xzz+c+Z3keUBaqcQu+jYtQbbshFsO3+SVvlVNpztq3WVWnVG5pycEc35zDAmIcKC4lOuxETHkNECM25FicAQeBVUqWLK8eAYiAiIAIaXs5VCo7ku0Yx50gPeTjBWFtYy75xFss0UZ8m5ZgNW2A2F4wMayGD7B2voHa857XUWXXPMLaFOZAAD4oGpSd/pNpw5QOwvQfhVM9DFPaHzCYsqHEakdjqkbE2U3eHT8s4xwCLJKnXgRESBOxWI7s8jYO+MqJDTuWxFesXA1xoqjW3VgN72FtXezup7BKAQssd2+D2rsN1fSh9+9OlLPX3UtiYuC0ePXGPt1BKvXxZjqr1NtHUYzxlWP6DcEpr8VUDQOleGnbKCpI7uFZg+poGzEAos1YTVtQuz9ANXvX5Ox148wYb0e100lkX+Xt58CAVfaffSnGKsNUDMCU1WDKaz+ejDbOf36nMi04/UcTq7UxJdVgFXlCnELHb3InSkBpaekweeJFQIR09st5l1LVuP2e8mFKBxCrPZJY7ZF912m9tD4lp6i15kjaRnw5u+yYZ/TeUK3QU2RhuyAAvhRH1NY3tYqxMkw0GhUjiIAI4oHkH0t2togRpK0LIiCC0O59pD6h3xqTzk0QREAEweP9ptTDiPtkE7ogiIDkINVigsygtzd37aEREREEERBBANjrdG1Y6p3dMpEuCCDLeHPnRq2e3aCcVmIHTsHpfzAFkFy113i/sWuC8PquvRxUVSKGSysK39ZlWB9pb/+PIAIipI2SVX9+BtS1xatnY0r6ExtxPE7/kUQ/e3IWZsjLLRbv6NoQ1q42sXeaNIPiNXNRTZspevdxcGLu3k+YLcbJmVso5Ao77jzkDlBXfvqIIXrIuThVBxIb4UVMFVLEcPbLG7om5pbioYBslu5qV2M1bsG3/hmshvfxrX+209w0SjF5wBVvLRJ7iYAIGWDnH0bON4YTEpdycAaOJTZkPM7A0cSGTJBbHYcXtuzi9ncauvy9P9X1o6ZqgBgwbhOMUvTuo6hoK0Vrn0A1b0mlDd6x35VvfVeMJwIiZFJE7hy50MCkrr1oR4kdMMnL4304saFHy9AXcM/qtTy1vespKILD+3P+cFkY54pFG8Xv/A3adlP0wb9Qu9fS1fU5PotF1d9+a7IYM7eQOZDcVP1vGngImJD6l4rwbX4R3+YXP9aUsgFEP3OaG5SvqJTo0CmYqv3dgICFYEeluiUeAKt37oZCExCl8G1egrXtVVDFWLvfx7fuKbA6pq21utqeRTzEAxF6kx13HlKnlLrdmC56IsldFUz1IUSHfckVEqeR2NDjcAaMzLtEUi9s2c3t7+zs9vevGTWQzw+szDuRUG3NFL33CLS1uvlf9myk6IMXINac9i5DPA8REKEP2fmHkUuMwe6d2mLEBh+DM3AkWBZO1eeIDQ2AVUKuLStWGKa98gGxHnhbo/uXcePo2txsOJYPa/tqfFuXQtseVPM2fFvCqKbNnU5uZ2T4w1Lz+317zUnyFIuACH3qjYx8Gji5zy/EacIZOI7YEL+7lt+0YCoPwqmpw1TUYHxl3vBYH4mNUuBEsfZs5o51bTy/q+cd5cW1zZw2tBqncgju0E0fCqlSYGKo5u1YO99ys0QaN6eI1bAO34YnwaokG/YPW4qz+1/x1t/k6RUBEbKAp///mdOOblkRMjlxSx23oy3eD1NU5WbQqzwAU17rCYzjJVLyxMbECe+tLLczVJbbebb/P9qIteMdrIYNqLbtEN0Nqug/zT1cNpHrBlyZll9igLu3/oTPRjd8/BfjQFElpqQWp3oozoBDoKjcW7TQniTK+fh3dvrbvOtVyvud3r/RZqxda7EaP4KWbajW7e45VM5svmtAOcfud8U7y+SpFQERsoSJcyLVY6Jv7rpozxzqWteIQeJ5a1YNPx54Ne8XHZC2c45uXcOM7Tdg5HFK5nX8tf8Vb31NLCECImQhgUcWG+M4nL/ncS5s/Bu+HEpj2ltcNfBnrCgZlfbzjmldxS3bfy0G7pzFluLq/rJBMP9eCsQE+YNxnK0AD1ZN5fzBd/NQ1RkoiZm1j3j8NCPiAbCi5AierjhejLwPMXz8ud8F7HflW34RDxEQIfuJtP+nQZVyX1WQK2t+w+slhxe8YR6pPJMVGbbDHdX1vFzmL3hbK2I8WnkKJ+8/k4crT35cHsv8RTYS5hdLgFP3/cOa4mH8eOBPKTFRLtn9AGc0LcAU2HvDjP7fYkH50b1S1w0DruDHu4qZ1PxiwTW+PVY191WdybyK43GXNBhQlpbHMp9fFoS8wf9w5DqMuTZRGQfFCXsjTG18ipFta/PaHhuLhnJbdT3LSkb3et1HtS7jhh23UhxvBVnedCCGp8un8FjlSbxfNPRTxw1q1OKg/015OkVAhGwXkFD4v4FbUy1/aNu7TGh5jeP2RjggujFvOrTnyiextmgYcytPdt+C+wgHxdcan+CI1jVMbHktb1ZpWUR5tvw41hftz18rT03gzyoiQb/0MSIgQi4w/uGXq3zG2t2d7w6K7eSU5gXs5zRyQvM/8eXQm3ObKuPRiuNosKqYV3kSrWTfnogyE+OcxscAxfmNT1FkWnOokzBs8g1lQfnR7LCqeaZiSqrfjESC/oA8mSIgQo4QePTfxsR6tnzXQTGqbT2BlldQWExqfomhsY+yYj2XRYxlJWN4vWQUBlhQ8RU+tAbk3GqzA2PbmNL8PAYfn29dxZjWVThZInw+WplffgKbfAPZbQ3g2fKjaValXe9cfEXXh88ef508lSIgQo7gD4VDwLR0nzeKhd36BmNaV1FqWpjUspT9o+/iUJyhhumwV5WxqqSOpcUjMKqEeeWTaLSq8nZpcoXTyOnN/8QyexkZ3Uxd63KqnV04GVr0oDA0q1KWlI7nnaL9abKqeab8GFq7IRadYZQ6YvE0/xvyVIqACDnjgSy5zsSi1/ZWfe64vmGIs4e6ltcYFltPjFJiWESVRRuKWIdm5sNQjKHYOFjE8JkWNhSN4M2S0Wzy9aeNItm/0sHGCofBTiOjWldxcNubOKqcGD6iyiKKoq2DjS0MxYDPGIqI4aOVvaqI10q/wDrfYJpUSWbnh5QiMk3mP0RAhJxi/JzwWJ+FxBkS+po5kWDgPDFDfiMbCfOMJecGlruBBQWhL70m5okVRECE3Hx8V4gNhL5CWRaLg4EHxBIiIEJu3tZHxAZCn72+OM6dYgURECFnH2AzW6wg9J0H4pN8AoVyr8UE+Ung4cXGxEtWJAiZ61KikaC/WOwgHoiQy16IcWaKFYQ+aHm/EhuIgAi5/hgrNUusIPQ2vrLyV8QKBeRvignyl/YMhYLQS7wYCQaOFTOIByLkgxfimLvECkIvskBMIAIi5IuAGCPLKYXeQSkiwcCNYggRECFPWPzVwBvIjmChd95WfihGEAER8u/NUHJSCxknEgzcIlYQARHy7cGe5r8HeFssIWTsHcWy/ihWEAER8pc/iQmEDIkHxGLfE0sU6P0XExQG/lC4BSgRSwhpZkYkGPiBmEE8ECGf8fm+LkYQ0szbIh4iIEIBEDl7woMomQsR0oeyrBvECiIgQqFguESMIKSJ58PnTJSozyIgQsF4IcHAImVZz4klhJ65HgrgGjGEIAJSYDQMrDwR2COWEHrA+ZFgQIImCiIghcaqyaNjKDVdLCF0y/nw+RZFpvkfEksIIMt4CxZ/KHI3mEvFEkIX2BMJBvqJGQTxQAqcSNB/GUq9JJYQUnvVVBjUF8QQggiI4GLMVUCzGEJIoa2ctjjoXyGGEERABM8LCYSBk5WSZiAk0A6YHgkGnhJLCJ9yTMUEQuCRxZOM4ywUSwif7iHUnMg0/3liCEE8EKFTwudMXGTgXLGE0MHzuF/EQxAPREgJfyh8OvCEWEIY4HMenn/20UGxhCACIqQuIg9HJgELMUaMUaB8c9B2LqzZCnB5RV39XWIRQQRE6IonMgmlREQKDAPceOBGjq3as28PsVBZnFI+un6vWEgQARESsnfF7EkK9b8rmkoPu3HjAWxqKxKjFAD9LIdfDvuAuvJOV3X/E8NVFePq/y2WEkRAhE5pWjbrG0qpe4znebQYiyvWDeftvaVinDympijKz4duYlx54i1BRpkxlWMvWikWE0RAhP/QuPy+GgtroTGM7ez4jC1DmLezvxgqDxlX0cTtwzeQ4mClYzDjKusukg2FggiIAC0rZp/iGJ4ySeY7ljaXc82GA9njyMrvfKBYGX514EYmVDZ26XuWpXAchlfUTd8gVhREQApZPFY9MDcWjaW8VLPFsbh58/4s3F0lxsthjqxo5vLajxhZ1u158WWWUieWjZ2+WawpAiIUmnCsvL/WccxcY8yk7nx/0e5+3PVhLR9GZYI9lxhYFOVbtVs5rrohHadbVFFXP1msKgIiFBCNy2YepVAzgEk9OY8F/GVbDTO31ohRsxwH+PqgbXxz0Dac9K7Mvqqirv73YmEREKFAaFo2axdQna7zbWkr5pYtg1nSWCnGzconXC2a+7l3J9X6WtN+akspHMc5vGLcRavF0IWJzIgWlnisSad4AAwpbuN3wz7goYPfZXxlkxg5e5hvUBMi0/yTP3PUeQr4cdo9G2NAqXvF1OKBCHlOy8r758VizmmZrmdDWwkztgxueK2pslp2svcJjxtlvrt42hfe73igcdmsiQoeBA5Or5PDqPKx9W+K6cUDEfKQ1pUPTOoN8QAYVtzKjGEbuGTQR98DrldK3lEy/hZoWQDXA5+PBANndiYeAJV19Ytxoy4vSu9bqLpY7oJ4IEKe0rRs1gLg+F6o6gFLqVWOw5yKcdPfaf+j/+HITzHmOEBW7aSXhSg1PzLNf3NXvtS4dNbnlWIWMDo9HohqLR87XcIViIAI+YZZ/teSZhNtyXA1zwHfq6irX56o0MS5r/iVpS7DcJF4v92mDdRtRvHnxdP8a7rdLt57ZFJzQ2PakohV1NVLXyICIuRdb7PqgWvaorEbM3T6dUVFvotKjvjaoq5+ceLD4S8oo84F8x1ph0lxlLJuMTh/jUwLLE3XSZuXzzraGF4SARFEQIR4AnJdWzR2bQZO/UhFXf20dJxoYihyiFKcizEXAqPkqVRgzEKUtSDqa7tdn/XF5kxV1bLy/lNiMeepnl2uonzsdOlLRECEPBSQn7dFYzek85yWZZ1UNubC+Zm6Zv/cyJeUT00xjnMGSh1VAKu5YsBTylf0Wmus7e5Xg1/Y1JuVNy2beSOoa3pwiicr6upPl6dNBETIM/a+PnOAY6kdaTqdKSkumlJ0+AWLevM3+EPhepQ6GGP6YfnOwjgH5aqoKMvCOM58IIyyjFHO/MXnBMJ9fV1Ny2Y9CZzarUYBX6ysq39ZnjYRECEPSdMqrFcU/LC8rv6lbPhN/rnhQ7HUuRjj8/50EkqNA8r6VFzcZcsGY94Fnga2gQJlNq72Nf9l11mTo9naTpqXz17YlfhoSimMMRdU1NU/KE+ZCIiQp7SsnH1hLGZm9+AUi5QyU8vHXtSQC793/JyXh/t81niruGyc09ZCu6AYzHiF+iLQ3237KrUnwP1+uyptN/CcgjfaBcMqKsZpa11jlFqypabp7fcnT3Zy1mNdPnuhk5qIGKXUlPKx0xfJEyYCIuS/F3KpZam7nS5G01NwX3ld/f8TCxZUW/kNcHUCz+NV4zgXVIy7SHafi4AIBdU5LJ11DYqky3otS2EMk+UNs0DbyfJZR2H4rVLquPZkY0qpZuDq8rHT7xQLCSIgBUrz8lkLjUkYzn2RUuo75WOnLxdrFbqQzByksCaC2VE+tv4VsYggAlLgtC6fWRXDmm2MObPDoYU+y7qhdMyF4nUIgiACIiR4u1w282BQ9UDMMi2/Kxt3yV6xiiAIgiAIgiAIgiAIgiAIgpAnyByIIOQgtm1X4AaeHAUcDhwEFHUoFgNWArdqrZuTnG8M8G3cHCHVuBslH9daP5SGay0DYlrrNrlzIiCCIPSNaFQBlwOXeYKR6vM7R2t9XoLz/gj4VScCBPAMMLU7nb9t28cDvwXqgCjwT+A7Wus35G6KgAiC0HvicQowC6jpxtdbgQO01ts7Oe8xwAskTvB1k9b6Z1283snAPzo571ZgrNZ6s9zV3EeywglC9ovH94F53RQPgBLip6/9dgr9wOXdqPOmOOcdBHxX7mp+UCQmyKqO4mRgIhAGntVaO2KVgm8TpwO39HC0YBMQL9z62BS+P8C27eFa6/UpXrMFjEtQ5Ci5syIgQvo6iQrvDXPKPn/eYNv2sVrr98RCBdsuBgMzeygeUeAarXUszvFUN492JStiCVCeSJDk7oqACOnjlg7iATAMNyLqt8Q8BcvFwH5JymwD7gPeA9YBDR3EY7XWemuC778O2Enq+CDJOQQREKEPCcb5++fENAXrffiA/0pS7GXgvFSHluLwG+B8oCJBmZ/LHRE6QybR+76j6I87sRhvKEAoTEYCwxMcbwNO76F4oLV+2xOQzlZFtQK/1FrfK7dDEA8kOxksJhA64bNJjv+js2W53RSRJ2zbXgScBRwGVAJrgPmewAiCCEiWUismEDrhM0mOz01nZVrrBtwJe0FIGRnCEg9EyE0P5EUxkSACIogHInTHA9kjJhJEQATxQITueCAiIIIIiCAeiNApw5McbxITCSIggnggQmcUJxIPCXMjiIAI4oEI3aFRTCBkA7KMVzyQrMUfCld6ArsX+CgSDMR6qd4SYH9gILA5EgxkW+hx8T4EERAh9z0Q27aLe5ppzh8KW8CXga8C4z2bDOaTAfkcfyi8DdgCfIi7c/ol4OlIMPBeD+ouBiYBU71/h9Ih/pQ/FG7GjTW1FngXN1vfg5FgYIc0X0EEROirzlf1pYDYtj0COBTYAazUWu9NUt4CzgEmAEfgplL9rG3bW4DvdzX9qT8UHoEbMPIcYEiS4pZnq33tdYF3nlXA08BDkWBAp1j3wcC1nnD0T1K83Puth+/zt9/6Q+F7gdsjwcDbedIeBwJ+3Gi5S7XWq3Lkur+Em9fkBEADV2itV0sPk3kkI2HmG/cRuEHxzoojFqUJvm5w4xHFow14HpiltX6kC9c0APiz13G3sx64WGu9IM53vgLMwE1P2hlRYEgq4TX8obDCjTJ8M1CVRnMb4B7g6kgwsD1O3dXAz3CTGpWmoU4HNxT/zZFg4JUu3IMvA5cAp9B5IMNk19aS4Nh7wBzgD1rrj1K8nq8Bf+CTodZneW2irYttvozE4d8jWutAmp6v7wG/79CX7QKOlFQImUcm0TPPPcCVuOHZSzv5JBP40gSfKuAMYK5t2wd24Zru7SAe4C4bfdS27VEdHtADbNt+Ajc9aV0Sb/bsFMSjFlgE/DHN4tFur4uBN/2h8EWd1D0eN8bTj9IkHu3P0FTgX/5Q+JspdnrFQAj4Gu5wWVfbBUnaxWHAL4Dvp3g947020TFPRz1wQxa/nN3kvdR0fBHu73mXgghITnsfw4FAL93Hs1O8pkpPdDqjcl9h8SIFzwdOT/E6JqQoqF/KsD0GAff5Q+Gr9xGPo4HnSD5U1l18wJ/3rTMBR9M7Q5dnpljufOIvG67PwufKZ9v2n4CfJCh2hPRAIiA5jRdqu7fGkV9Osdznktz3z3kPaSnwGKmlPG3nmRTKjEvxXA24k+Uf4SZN2g7sxB2mSpVf+0Ph6f5QeBKwAKhOUDbsvbUe6/3mw3FDqh+GO9y1JMU6f+MPhW9M1jTonZ3k/0qx3KEJjg31XjqyRTxKPe/t4jQ9D0IPkEn0zHMl8APgK2kcNtmXtcDftNY6xfLJXhral8r+BXdVUqqsA/6eQrlngc6GerYD/wQWep8VkWDgU2LhD4WHACcCJ+FOmtYkqEvh96XkJgAAC2RJREFUzvW0eN5VZywCrokEAy8lOM8a4A5/KDwKmI47pzUwQfmf+kPhOZFgYEWcF4s9tm1/G3ceyE/65yKbcIccb0uxfHEPj/eWeFR7LzWTkxR9ExnCEgHJEy/keeB5L+95xzfgUtwJz3i8QuKhqWgGUo3GbNseh7fCKQ6OJxhveZ3rSiCUbBWXx3eBMq8TWOp1dAuBpZFgIOn+hkgwsAV3cneWt/x3Au5kdLz5hxLiJ+a6G/hWZ0IVp+7VwM/8ofA9uBPnRyQQ6ZuBUxO0i1nALG9BQ1knRZYRf5jrIxLPR+3QWrfk03Pk5Yd/Bvh8kqKLgVO98PRChpFVWH37UCRbrfKC1npSmus8EngtQZH/wV0V9PUOf/8QuM57Y1+bbR2UPxQ+E5hN6hPzfwIuS1U8OqlvILAcd99IPKZEgoGF3bxPm4k/X7NFa71/GtvE3z2vLh77aa13prFdd2kVlm3bn8UdghyZpOjTQFBrLXHCegmZAxE6UtvB+2jDXelyqNb6Lq31G9n4dhsJBh7DHRJKhXt7Ih5efduBS5MUq5fm1GNxG4O7YTSZePwFmCri0bvIEJbQkal8POSzApimtX4zFy48Egzc7w+Fv0HiMfLtwBU9EY99eAY3LlW8+ZVDpDn1SDyOBp6kQ2SATvil1vrnYjHxQIS+p108WoELckU89mF+kuN3RYKBtLylenM2iYYDRUC6Lx6n4s6PJRKPGPAtEQ8RECH7uFZrvTwHr/v5BMdagDvTXN+rCY7t7wWEFLomHtNxV1uVJyjW7HnH/ysWEwERsotXgN/l6LVvS3Dsfm8VVzrxJTkuw8RdE4//BmYmsdt24Hit9WNiMREQIfuYobWO5ei1J9qf8VAG6huR5PhuaU4pi8dNwK0kXh26DjhGa/2SWKzvkbcjoTNW5PC1JxKQ19JZkRcUMlHIjHdT2dsiwmH7gLtw9/MkYhlwstZ6o1hNBETITlpwNwjmm4CsiwQD29Jc16l4oV960ePJN/EoBf5K8lhuC4GztNa7xGoiIEL2srqvhq+85E41uMEQB+FuCmzCXSrb/tmZJJHT0F7yPnzANUmKPSDNKaF49AMeJ3lokjlAvda6VawmAiJkN2/0olh8BQjiZiOsJXGww32/u52Pw6i0//smsJr4EYFXpPHaFe6OfX+CYssiwcBKaU5xxSPV0CS34SYrM2I1ERAh+8noLnN/KDwZd4f2VJJvEItHe+a8jh24Q/x84avTcO0KN+XurcAXxfvoNrXAiyTeXW6AH2mtbxFziYAIBY4/FK4B7iBxkMaeYhF/ZeFf/KHwDcD73uc979/1wAZgI51nfzwYNyrx5H08pWRswM17InTOwSmUEfEQAREE8IfCxwCP0of533FDkh/kfTJJKzAtAxP2+UQTnafx3ZfLbNt+QGu9ScyVvcg+ECHT4nEE8EQfi0dvsRM4IxIMROTOJ2Q58MMkZQ4BnrVtu0bMJR6IUJjiMQh3ojSVuY4Gz0t5FXdYaT1u3osBwGBPgOL9O5T4AQ17iwhQHwkG1sidT47W+hYvF8rPEhQbDcy3bXuK5PcQAREKjx+RfKf2OuAqYF4kGNgb53gqYjUAN0HUV3v5Nz4P3BQJBp6T291lEbnGtu3+wBUJitnAU7Ztnyih2kVAhMLyPi5PUmwe8HUvt0bPXv+DgZ3+UDiep/Nr3Ci9R+DmOj8MdyL3M3Q9XesO4HXvM0eGq3rMd3CXbyfKnXIM8Jht26fnW6ZFERBB6JxLSTystBKYmqa8HO0cFufvL0eCgReAFzqInAUM88RkmCcmKs5nE/B6JBhYJ7c2rV6IsW37G56InJmg6PHAHNu2p2mto2I5ERAhv5mU5Piv0yke/lC4Ahge5/B7cbyW9tzuIgp9KyIx27bPw00edVyColOBmbZtT9daS4yxLEBWYQlpxwvzkSjn9TukP07UocSP4vqR3JWsF5EWzwN5JUnRCwDJASICIuQxhwP9Ehx/MhIMpDveVl2cvxtgq9ySnBCRRuAU3Ki7ibjEtu3fi8VEQITEqBy97mQxrTIRFO/cOH9vzoBYCZkTkZ3ACSSPCP1927avF4uJgBQyyeYABubo70qWpS+tk6D+UHiw1+l0RoU/FC6XppZTIrIFdy5kfZKiv7Bt+yqxmAhIoT4oLbghyuORq7u3k73xp3sVzfkkXhBysLS2nHs21nki8mGSor+zbfu/xGIiIIXKuwmO1di2nYvDWMuJHxUX4MA0eh81wI+TFJO31NwUkTXAibghYhLxP7ZtXygWEwERAfkkRcRfmpq1RIKB3bj7POLxVX8oXJ2m6u4C9k9SZro/FD5UmlpOisjruJkfE+1CV8B9tm2fJRYTAREB+STn5ujvejLBsSrSsBTTHwpfjJuQKhk+YJ4/FB4nzS0nReRl4CwSL77wAQ/Ztn2iWEwERATkY3LVNb8tyVvj+f5Q+I/+ULi0G8Lh84fCvwX+1IWvHQqE/aHw5f5QuNsbaP2hcK0/FL7AHwo/4g+F5/lD4a9LE+4VEVmAO9eVaH6tBHjUtu1jxWIiIIXC20mO19m2PSPX5kIiwcCHwB+TFLsciHgh31PtwEcCC4gfDjzRBH2Zd02b/KHw3f5Q+Cv+ULgkSX39/KHwqf5QeIY/FF4KbMHNNng2cBpwrz8UPk+aca+IyKPAxSRevVgBPGnb9nixWOaRUCZ9zz9wA/QlCnn+PWCUbdtzccOGb8EdBqoGSoE1WuvdWfjbrsHdkZ7ojXAcsMIfCr+Iuzt9HrAlEgy07tOJD8DdpfyNJOdqAM4AvusNecRjEG6srku982/DjXW1CXfCtgg3LtZg3JzdyZ6T80n/znqhcxG5z7btauD2BMWqccPA+7XWb4vVxAPJ5wdiLzArhaInA/cCq4BtuOlYlwNLgJ3ZuDPXE4GzcUOXJEJ5wvBH3LhULf5QuNEfCm/1h8JtnsDem0Q8PgQme0ETz/eEOVVqgDG4AfuCnvicBkxM8SVro7TkXn1m7gB+kaTYQOAnYi0RkELgJnoWr8nC3ZmbyiSx08PjXRWRrZ4X8o8ufrXC69hT6cDfBb4YCQZe9epsj6v0RC/cuzXAdRk4b1s3j3WHRCHSDV2PHBBN0o56HJJda30jMCNJsQsko6EISCG8UX2IO7bb0877ohTKvJ/keNpdfk9ETvQ62nQnBVrkicfbHepsjAQDU3FXsW3JwG3bC/wGmBAJBjJx/kShPFZlQATjinNXEzl54dYTLQ5Zmabn5gfAPQmKlCHD9CIgBSIiTwBfAtb24DQNKdSzC4iXPa8ZeDwTvy8SDDiRYOB63F3ht/ZQSIznXRwdCQYmR4KBTQnqnQuMBL7piU1PQ8gb4EFgVCQY+EkkGMhUqtVEcyqz01zXwwleXu7q5jkfTOA93ZvGa78UmBvn2DNeWBQhQygxQXZh23aV55pf0sWv7gS+rLVelkIdBwBz+OScwibgMq31vN74nf5QuBg4End4q/2TKOTIFuBF7/P3SDCwupv1DsdNe3sUMAo3CVVVCl7Zi8BLwAuRYOCtXmoLt+AuCCjap/P9tdb62gzUdQVwM+7QIbjLZW8Dfqi1Nt04X4knFBfs8+etwOVa61Car70Y+IMnJu28AEzTWkskZhGQghSSI3Enccfhhiqv4+Mot47nLTR5Qx3/Bn6rtd7YxTps3NDrm4BX+jrntD8UrgX8uKHgm/f5bOw4RJXGOhVuNsJDvI461uGzNkNDVKneoxHABO+e/1trvSGDdQ3x7F8CLPbiUfX0nKO8F4XtQFhr3ZDB6x+Hu2puLfAvSTolCIIgCIIgCIIgCIIgCIIgCIIgCIIgCIIgCIIgCIIgCIIgCIIgCIIgCIIgCIIgCIIgCIIgCIIgCIIgCIIgCIIgCIIgCIIgCIIgCEIu8X9uF5SYCj+LIQAAAABJRU5ErkJggg==;" vertex="1" parent="1">
          <mxGeometry x="320" y="440" width="180" height="180" as="geometry" />
        </mxCell>
        <mxCell id="P7QgvSndgrQcU59DoDmU-6" style="edgeStyle=orthogonalEdgeStyle;rounded=0;orthogonalLoop=1;jettySize=auto;html=1;exitX=0.75;exitY=1;exitDx=0;exitDy=0;entryX=0.056;entryY=0.583;entryDx=0;entryDy=0;entryPerimeter=0;curved=1;" edge="1" parent="1" source="P7QgvSndgrQcU59DoDmU-24" target="P7QgvSndgrQcU59DoDmU-4">
          <mxGeometry relative="1" as="geometry">
            <Array as="points">
              <mxPoint x="-228" y="660" />
              <mxPoint x="85" y="660" />
              <mxPoint x="85" y="545" />
            </Array>
          </mxGeometry>
        </mxCell>
        <mxCell id="P7QgvSndgrQcU59DoDmU-11" value="This user with this token want this&amp;nbsp;" style="edgeLabel;html=1;align=center;verticalAlign=middle;resizable=0;points=[];" vertex="1" connectable="0" parent="P7QgvSndgrQcU59DoDmU-6">
          <mxGeometry x="-0.0322" y="4" relative="1" as="geometry">
            <mxPoint y="1" as="offset" />
          </mxGeometry>
        </mxCell>
        <mxCell id="P7QgvSndgrQcU59DoDmU-29" style="edgeStyle=orthogonalEdgeStyle;rounded=0;orthogonalLoop=1;jettySize=auto;html=1;entryX=0;entryY=0.75;entryDx=0;entryDy=0;" edge="1" parent="1" source="P7QgvSndgrQcU59DoDmU-18" target="P7QgvSndgrQcU59DoDmU-3">
          <mxGeometry relative="1" as="geometry" />
        </mxCell>
        <mxCell id="P7QgvSndgrQcU59DoDmU-31" value="Publish this event in Managers users que" style="edgeLabel;html=1;align=center;verticalAlign=middle;resizable=0;points=[];" vertex="1" connectable="0" parent="P7QgvSndgrQcU59DoDmU-29">
          <mxGeometry x="0.0612" y="-2" relative="1" as="geometry">
            <mxPoint as="offset" />
          </mxGeometry>
        </mxCell>
        <mxCell id="P7QgvSndgrQcU59DoDmU-35" value="Subscribe waiting for confirmation" style="edgeLabel;html=1;align=center;verticalAlign=middle;resizable=0;points=[];" vertex="1" connectable="0" parent="P7QgvSndgrQcU59DoDmU-29">
          <mxGeometry x="-0.2727" y="2" relative="1" as="geometry">
            <mxPoint as="offset" />
          </mxGeometry>
        </mxCell>
        <mxCell id="P7QgvSndgrQcU59DoDmU-18" value="Manager Pulsar Publisher Client)" style="triangle;whiteSpace=wrap;html=1;" vertex="1" parent="1">
          <mxGeometry x="660" y="690" width="80" height="120" as="geometry" />
        </mxCell>
        <mxCell id="P7QgvSndgrQcU59DoDmU-28" style="edgeStyle=orthogonalEdgeStyle;rounded=0;orthogonalLoop=1;jettySize=auto;html=1;entryX=0;entryY=0.25;entryDx=0;entryDy=0;" edge="1" parent="1" source="P7QgvSndgrQcU59DoDmU-19" target="P7QgvSndgrQcU59DoDmU-3">
          <mxGeometry relative="1" as="geometry" />
        </mxCell>
        <mxCell id="P7QgvSndgrQcU59DoDmU-32" value="Publish this event in HR users que" style="edgeLabel;html=1;align=center;verticalAlign=middle;resizable=0;points=[];" vertex="1" connectable="0" parent="P7QgvSndgrQcU59DoDmU-28">
          <mxGeometry x="-0.0016" y="-1" relative="1" as="geometry">
            <mxPoint as="offset" />
          </mxGeometry>
        </mxCell>
        <mxCell id="P7QgvSndgrQcU59DoDmU-36" value="Subscribe waiting for confirmation" style="edgeLabel;html=1;align=center;verticalAlign=middle;resizable=0;points=[];" vertex="1" connectable="0" parent="P7QgvSndgrQcU59DoDmU-28">
          <mxGeometry x="0.2123" y="-4" relative="1" as="geometry">
            <mxPoint as="offset" />
          </mxGeometry>
        </mxCell>
        <mxCell id="P7QgvSndgrQcU59DoDmU-19" value="HR (Pulsar&amp;nbsp; Publisher client)" style="triangle;whiteSpace=wrap;html=1;" vertex="1" parent="1">
          <mxGeometry x="660" y="310" width="90" height="130" as="geometry" />
        </mxCell>
        <mxCell id="P7QgvSndgrQcU59DoDmU-24" value="" style="shape=image;verticalLabelPosition=bottom;labelBackgroundColor=default;verticalAlign=top;aspect=fixed;imageAspect=0;image=data:image/jpeg,/9j/4AAQSkZJRgABAQAAAQABAAD/2wCEAAkGBxATEBIQEA8QEhISEA8PEBAPEBAQDw8PFRIWFhUVFRUYHyggGBonGxcWITEhJSkrLjouFyAzODMuOCktLisBCgoKDg0OFxAQGC0lIB4tLS0tLy0tLi8tKy0tLS0tKzctMC0tLS01LS0tLS0rLTItLS0tLSsrLS8tLS0tLS0rLf/AABEIAKMBNQMBEQACEQEDEQH/xAAbAAEBAAIDAQAAAAAAAAAAAAAAAQIHAwQFBv/EAD4QAAICAQIDBAcECAUFAAAAAAABAgMRBCEFEjEGE0FRByIyYXGBkRQjQrM0NWJydKGxwyRDgoPBFRZT0eH/xAAaAQEBAAMBAQAAAAAAAAAAAAAAAQIDBAUG/8QAMhEBAAICAAQCCQIGAwAAAAAAAAECAxESITFBBFEFEzJhcYGRofAiwTM0QrHR4RQkUv/aAAwDAQACEQMRAD8A3OYuQAAAAAAAAAAAAAAAAAAAAAAAAAAAAAAAAAAAAAAAAAAAAAAAAAAAAAAAAAAAAAAAAAAAAAAAAAAAAAAAAAAAAAAAAAAAAAAI2E2Jg2oUAAAAAAAAAAAAAAAAAAAAAAAAAAAAAAAAAAAAAAAAABJBJIoEEc75+RI33VSgBIyT6BImJUKMAAAAAAAABEwKAAAAAAAAAAAAAAAAAAAAAAAjZBjXZkkW2kTtmZKAAAAABjCKXQJERHRkFAAAA2AAAefxjjWn00ea+xRz7MFvZP8Adj1fx6GNrRXq1Zc1MUbtLW/aDt1qL8wozRV09V/fSXvkvZ+C+rOe2WZ6cnk5/H3vypyj7vE4NxzUaaXNTY0m8yrl61c/jHz963MK2mvRzYvEXxTustk9nu3GnvxC3FFr2xJ/dzf7M/8Ah/zOiuWJ6vXweNpk5Tyl9UbXaAAAAAAAAAAAAAAAAAAAAAjQEjBLoSI0mmRVYWMsJJFvG3UkkdGWQKFAIkRNKVQDFy3S8xpNsgqSQGM5qEXKTSjFOUm+iillsSm9RuWvu0HpCbzDRRx4d/Yt/wDRB/1l9Dntm/8ALy8/pDtj+r4+nQ6vVOdsa773n17FGU9/Jvz9xqiLW5uGuLNm3aImXRsrlFuMouMk8OMk4yT8mn0Zi0zWazqWIYu3pOF6i2ErKqLbIR9qUISlFeLWUWKzPSG6mDJeJtWszEPX7PdsNTpsRz3tS/y7HvFfsS6x+G69xnXJNW7B4zJj5Tzhs7gHH6NXBypbTjjvITWJQbzjPg1s915HTW8W6PZw56ZY3V6hk3AAAAAAAABsCcyCbhQoAAAAAAAAAAAAAAAAAYzlgCpgUAAA6PHf0XUfw9/5ciW6S15fYt8JaIOF8w3X6O4r/ptG3Xvm/e+9mduL2IfU+j4/69fzu6Xb7sp9ph39Mf8AEQW6X+fBfh/eXg/l5Yxy4+LnHVq8f4P11eKvtR92omvP6PqjkfOTGm7PR9FLhunwuqsfz72Z24vYh9T4CP8Ar0/O7T/G0lqtQksJai9JLokrJHHPWXzfiP4t/jL7X0S9dV8NP/cN+Hu7/Rn9fy/dsM3vWACYAAATAASWcbEneuQYKJH+gYwyDIAAAAAABEwkJvvn5AWLCqAAAAAAAAAAAAHR47+i6j+Hv/LkY26S15fYt8JaIOJ8w3Z6PP1bp/8Ad/OmduL2IfVej/5en53eb2Y7V82r1GivlutTqI6ebftRVsvu3714fTyzhjyfqmstPhvGby2xX850830jdlPa1unj+1qK0vral/X6+Zjmx/1Q5/SPgt7y0+f+X03o/wD1bp/3bPzZm3F7EO/wH8vT87tP8d/StT/E6j82Rxz1l814j+Lf4y+09EvXVfDT/wBw34e7v9Gf1/L92wze9YAAAJJbbhJIRwsIERpQoAAAAMZyxuyTOkmVhJPdCJ2RKlUAAAABgRICgGAIBRIogpQAAAAEkiTG4HS45+iaj+Hv/LkSekteX2LfCWiDifMN2ejz9W6f/d/OmduL2IfVej/5en53ak49JrWalptNarUNNPDTVst0zkt1l85nmYzXmPOW0OwfalaqvubmvtEI75x99Dpzpefmvn47dOLJxcp6vf8AA+LjNXht7Ufd9Nw/RV01qqqPLCLm4xXSPNJyaXuy2bYiIjUO2lIpHDXo0Nx39K1P8TqPzZHBPWXyXiP4t/jL7P0TLfVfDT/3Dfg7u/0Z1v8AL92xDe9ZHLdLzGk2oUANEBIIFVGwiZ65AxhIspEuQjJJxysEmNokIY6CI0aZFUAAAAAAAAAAAAAAAAAI2BQOtxOh2UW1xxzTqshHPTMotLP1JPRheOKsxHeGj+JcNu08+7vrlCXhn2ZLzjLpJfA4prMcpfN5MV8c6tD67sr27hptKtPZTObrc+7cHFKSlJyxLPTdvdZN1M3DGph6fhfSNcWLgtHR8XrNQ7LLLZYTssnZJLonKTk8fU0zO3l3vx2m0910eqnVZG2uTjOElKMl1T/9e4ROp3BjvalotXrDYun9J9fd/eaafe46QlHupS+L3ivk/mdEZ+XR7dfS9eHnXm1zqbpWWTm161lkptRX4pybwl8Wc3d4l7Te0z5tl+jbg19ELrLoOvve65Iy2niPPlyj4e0uu504qzETt7HgMN8cTNo66faG56AAAxjIIyCgABgABMAUAAAAAAAAAAAGAAAAAAAAAATlCKFAOvrtFVdB13VxnB/hks7+a8n70SYieUsb0reNWjbX3aD0ezjmejlzx69zNrnX7sukvg9/ezRbD/5eVn9HTHPH9Hw11UoycZxlGUXiUZJxlF+TT6GmeTzZrNZ1LEjF7vAOymp1WJRj3dX/AJrE1Fr9hdZfLb3mdcc2deDwmTLz6R5tl9n+y+m0qThHns8brMOf+nwivh/M6a44q9fB4bHi6dfN7hm6QAAAYAAAAAAAAAY5eHgIuQKmCAKAAGQAAAAAAGBIsIoVGwCYFAjlvgm+ehSgAAAeZxvgOn1UcXV5kliNkfVth8Jf8PKMbVi3Vpy4KZY1aP8ALxuC9g9NTLnsbvknmKsilXFeHq/ifve3uRhXFENGHwOOk7nm+rx4G12qgJFPfckbFKAAAAAkkQEgKUEQCg0BEgihQAAAAAAACKW7XkBQAEkAyB0ePaqVWlvthjmrpsnHKyuZRytjDJbhrM+TXltNaTaOzxOH9oLp/Zq7OWN32qWn1UUtmu5nZCUfJSSi8/E1xkn9Me/U/RopntPDE9d6n6O3re0vJKThp52VV3R09lynXGMbXJRaUXvLDkk3jqZTk129zO3iNTyruInW11+ssWu0tUo2QhKV6hKFse7uxTzPvK8Z2fTfruWZniiFveYy1rqe/fry7nEe0Mq7L4Q0tlv2eFdtkozrilXKLlnDeW8J7JPo/mtk1Mxrol881m0RWZ1zZaztJXUqbLIyjRdS7YXdVz8vOq3Hwk49N93sJyRGt9JW3iK1iJnpMdXqaC+U6oTnW6pSipOtvmcM9E3jrgzidw21mZiJmNPk9bxvWRlqbYW1SjTqo0Q0sqlz3J8m0Zp55vW8n0NM3tuddp6OO2bJE2mJjlOteb2eM9oVRKUI0ztddauu5Z1wVVTzj2n60tm+VeRnfJw9tt+XPFO29c59znhxut2xrw1Gel+112t+rKvK5ljwaTT+ZeON6922UZo4te7bqf8AcmaqJR08pW31yuhR3lceWlY9aU5YSzmOF7zH1vKJ11Yf8j9MTEc5569y6jtKlpatXXTOyqxxUvWjGdblNQxj8T5m1t5FnJ+mLaJ8RHq4vEbiWer49KqqudunnCy211V0ysqTb3ac555Y5S6ZfluJvqImY6rbNw1ibV5zOtcnLrOMuuurmoff3OUYadWV5zFOUs2N8qSSzn3os21EcucrbLwxG45z2c/BuJx1FSsUXB8065wk03CyEsSWVs/j7y0txRtljyReu3hcW4pqo36tVX01w0tNVyhbWpK3mhKTXNlNez/M12tbc6no58mTJF78MxEVjbuXdobIrTZ0k5PU1qUVCcFJW925uvlljp5t/wBDKcmtcurZOeY4f0+07Oo4xOPd1x00p6idXfTojZWu6isJ81j2frPCx1wWbdtc2U5ZjUcO5mN68nE+0tfc0ankkqLZ93ZOWz00suPrx8uZNN522J6yNRPb+zH/AJFeGL65T9lj2g+6qvdMo1XXxphJy3Vc3iu2Sxsm8be9D1nKJ11X18cMW1ymfyXe4fxDvZ3xUWo029zz5ypzUU5YXhhvH1MotuZ9zZW/FNojtOndMmYAAAAAAAAAAAAAAAAAAMeUbHU4xpe+oto5uV2Vzr5sc3LzLGcGF44qzHmwyV4qzXzebd2cUtVp9VGzldUVGyPLtdywcYPrs1zS89jGce7RbyapwROSt99Pu8niPCLJX2UUfalXZqa9TdzwrWkUuaNk5QsfrSe3sx8fcYWpO9RvnO/c0XxTNprXet7nyexxThWqs1Fd8L6YKlzdMZUTm1z18kudqa5vFrGDO1bTbcT093+3Rkx3teLRMcvd/ty28Hk56ufeL/E0V045fYcYTi5dd/azj3FmnO0+azi3Np37UadbU9mnbVRRbc+6ooVajBOMpXqChG1vP4VlqPm98knHuIiZ5Q1z4firWkzyiPv5vZ0FVkaoRtmrJxioysUeXna8cZeH5myu4jm6KxMViLTuXhansopO+yM4xvnqFqaL1D16WlHEG/xR2eV03NU4t7nvvce5z28NE7mOszuJ8mXFezs7LlqYPTOx1wrsr1OnV1MnHpKO6lB//C2pMzxR94XJgm1+ONb13jbl492feorpjGyNM64zrcoQ9V02V8lkIxzsntjywMmPiiOelzYPWREb1r+3c432dVsqbK3VGVMHXGF9Mb6J17Yi4vo1jZotqbmJjsZcEXmsxrl5xuE4lwW63S16eNmnqw4ys7uiXduUZqce7jzLlWVvnPUlqTasRuPoXxWtSKxMR8na4lob7aI1N6Wcm/vndROVUlv7MObKeceJlatprrl9Gd6WtXXL5w86/smnp9NUrVKel5uSd9Strmpe1CVbfs9Et9sIxnFyiN9GmfCxwVrvnXzexwnSSrqUJqmMsybWmr7qrrtiOXvjBnWJiObfjpw11Ovk6q4BU9XbqrY12OcaVXGdak6nBNNpvxe30MfVxxTaWHqKzkm88+ny0nGeF6i26m2q6qCobnCM6ZWN2SjKLbamtsPp7upL0taYmJ6fnmuTHa1omJ6e44jwu56iGq09tcLFS9PYra5TrnXzcyaSkmmnn6mVqzvdZL47ccXrOp1pxS7OfcVaXvW6YzdmpWMT1LcnNrKfqxc3lrySRPV8or27+9j6j9EU3y7+9wa/QTr0EtLNW6rmzTT3UF3sY7upzbePVaXrbdESazFNdWN6TXFwTue0ft9HqdntBKjTwrm+ax81l0uvNdOTlN58d218jKleGum3DSaUiJ69/i9EzbQCBFCgAAAAAAAEk8bkGNdifQRO0idsyqASTA46c5bYYw5QyYyiQZJFETAoAAAAAAAAAAAARyRJmBSgBEwihRgSLCKFAAAAAAAAAAAAaAkYpdCRGkUqo2QGgKUAABgcdVeMhIjTkCgGOQjJMKAAAAAATAAMEAoAAAEbAIIoUAkpY6gUAAwAAAAAAAAAMCJAOVeRBSgAAAAAABgAAAAAAAAkAAhBWJ32EyVFCopImwkiipAAAAAAAAAAAAAAAAAAAAAAAAAAAAAAAAAAAAAAAAwAADBQ8/MmkZlVx3ZxlBJWqWVuCGYUAkpJbsgkJprKETtGRVAAAAAAAAAAAAAAcU4b/TcrGY5uUjIAAAAAAAAAAAADFsIyCgGNqbWwSSuOFgEMgoAAhATKKBJLOxBIQS6CI0kRpkVQAAAAAAAAAAAAAAAAAAAAAAAAAAAACNAUAAAAAAACYIGChFebAoAAAAAAAAAAAAAAAAAAAAAAAAAAAAAAAAAAAAAAAAAAAAAAAAAAAB//2Q==;" vertex="1" parent="1">
          <mxGeometry x="-460" y="397" width="309" height="163" as="geometry" />
        </mxCell>
        <mxCell id="P7QgvSndgrQcU59DoDmU-25" style="edgeStyle=orthogonalEdgeStyle;rounded=0;orthogonalLoop=1;jettySize=auto;html=1;entryX=0.013;entryY=0.577;entryDx=0;entryDy=0;entryPerimeter=0;" edge="1" parent="1" source="P7QgvSndgrQcU59DoDmU-2" target="P7QgvSndgrQcU59DoDmU-24">
          <mxGeometry relative="1" as="geometry" />
        </mxCell>
        <mxCell id="P7QgvSndgrQcU59DoDmU-26" style="edgeStyle=orthogonalEdgeStyle;rounded=0;orthogonalLoop=1;jettySize=auto;html=1;exitX=1;exitY=0.25;exitDx=0;exitDy=0;entryX=0.01;entryY=0.294;entryDx=0;entryDy=0;entryPerimeter=0;" edge="1" parent="1" source="P7QgvSndgrQcU59DoDmU-2" target="P7QgvSndgrQcU59DoDmU-24">
          <mxGeometry relative="1" as="geometry" />
        </mxCell>
        <mxCell id="P7QgvSndgrQcU59DoDmU-27" style="edgeStyle=orthogonalEdgeStyle;rounded=0;orthogonalLoop=1;jettySize=auto;html=1;exitX=1;exitY=0.75;exitDx=0;exitDy=0;entryX=0;entryY=0.865;entryDx=0;entryDy=0;entryPerimeter=0;" edge="1" parent="1" source="P7QgvSndgrQcU59DoDmU-2" target="P7QgvSndgrQcU59DoDmU-24">
          <mxGeometry relative="1" as="geometry" />
        </mxCell>
        <mxCell id="P7QgvSndgrQcU59DoDmU-33" value="Subscribe to HR functions&lt;div&gt;&lt;br&gt;&lt;/div&gt;&lt;div&gt;Publish confirmation/fail&lt;/div&gt;" style="whiteSpace=wrap;html=1;aspect=fixed;" vertex="1" parent="1">
          <mxGeometry x="1201" y="455" width="80" height="80" as="geometry" />
        </mxCell>
        <mxCell id="P7QgvSndgrQcU59DoDmU-34" value="" style="shape=cylinder3;whiteSpace=wrap;html=1;boundedLbl=1;backgroundOutline=1;size=15;" vertex="1" parent="1">
          <mxGeometry x="1340" y="455" width="60" height="80" as="geometry" />
        </mxCell>
        <mxCell id="P7QgvSndgrQcU59DoDmU-37" value="Subscribe to Management functions&lt;div&gt;&lt;br&gt;&lt;/div&gt;&lt;div&gt;Publish confirmation/fail&lt;/div&gt;" style="whiteSpace=wrap;html=1;aspect=fixed;" vertex="1" parent="1">
          <mxGeometry x="1201" y="610" width="80" height="80" as="geometry" />
        </mxCell>
        <mxCell id="P7QgvSndgrQcU59DoDmU-38" value="" style="shape=cylinder3;whiteSpace=wrap;html=1;boundedLbl=1;backgroundOutline=1;size=15;" vertex="1" parent="1">
          <mxGeometry x="1340" y="610" width="60" height="80" as="geometry" />
        </mxCell>
      </root>
    </mxGraphModel>
  </diagram>
</mxfile>
